<?xml version="1.0" encoding="UTF-8" standalone="no"?>
<!-- Created with Inkscape (http://www.inkscape.org/) -->

<svg
   xmlns:dc="http://purl.org/dc/elements/1.1/"
   xmlns:cc="http://creativecommons.org/ns#"
   xmlns:rdf="http://www.w3.org/1999/02/22-rdf-syntax-ns#"
   xmlns:svg="http://www.w3.org/2000/svg"
   xmlns="http://www.w3.org/2000/svg"
   xmlns:sodipodi="http://sodipodi.sourceforge.net/DTD/sodipodi-0.dtd"
   xmlns:inkscape="http://www.inkscape.org/namespaces/inkscape"
   width="210mm"
   height="297mm"
   viewBox="0 0 744.09448819 1052.3622047"
   id="svg14281"
   version="1.1"
   inkscape:version="0.91 r13725"
   sodipodi:docname="characters.svg">
  <defs
     id="defs14283" />
  <sodipodi:namedview
     id="base"
     pagecolor="#ffffff"
     bordercolor="#666666"
     borderopacity="1.0"
     inkscape:pageopacity="0.0"
     inkscape:pageshadow="2"
     inkscape:zoom="0.35"
     inkscape:cx="-109.28571"
     inkscape:cy="520"
     inkscape:document-units="px"
     inkscape:current-layer="layer1"
     showgrid="false"
     inkscape:window-width="1920"
     inkscape:window-height="1056"
     inkscape:window-x="1920"
     inkscape:window-y="24"
     inkscape:window-maximized="1" />
  <metadata
     id="metadata14286">
    <rdf:RDF>
      <cc:Work
         rdf:about="">
        <dc:format>image/svg+xml</dc:format>
        <dc:type
           rdf:resource="http://purl.org/dc/dcmitype/StillImage" />
        <dc:title></dc:title>
      </cc:Work>
    </rdf:RDF>
  </metadata>
  <g
     inkscape:label="Layer 1"
     inkscape:groupmode="layer"
     id="layer1">
    <g
       transform="matrix(0.61941464,0,0,0.61941464,-144.38913,-60.088641)"
       id="g4"
       inkscape:export-filename="/home/becky/Documents/GameJams/AdventitiousAsylum/assets/characters/man-spedec.png"
       inkscape:export-xdpi="90"
       inkscape:export-ydpi="90">
      <path
         style="fill:#54b59d;fill-rule:evenodd;stroke:#000000;stroke-width:2.0999999;stroke-linecap:round;stroke-linejoin:round"
         inkscape:connector-curvature="0"
         d="M 464.67,510.13 451.978,712.5 408.966,712.5 415.312,507.31 464.67,510.1304 Z"
         id="path6" />
      <path
         style="fill:#a9c8e7;fill-rule:evenodd;stroke:#000000;stroke-width:2.0999999;stroke-linecap:round;stroke-linejoin:round"
         inkscape:connector-curvature="0"
         d="M 415.31,728.71 407.5537,744.928 408.9639,759.735 C 408.9639,759.735 490.0489,770.648 499.6949,759.05926 509.2269,747.60726 461.5589,737.35026 453.8629,729.44426 446.1669,721.53856 444.9249,717.42826 444.9249,717.42826 L 411.7849,718.13337 415.3105,728.71037 Z"
         id="path8" />
      <path
         style="fill:#54b59d;fill-rule:evenodd;stroke:#000000;stroke-width:2.0999999;stroke-linecap:round;stroke-linejoin:round"
         inkscape:connector-curvature="0"
         d="M 407.56,752.69 401.214,761.1514 408.9703,768.2025 506.0573,768.44081 505.59049,757.64581 499.92999,756.21601 483.71199,756.21601 413.20099,754.80581 407.56009,752.69051 Z"
         id="path10" />
      <path
         style="fill:#54b59d;fill-rule:evenodd;stroke:#000000;stroke-width:2.0999999;stroke-linecap:round;stroke-linejoin:round"
         inkscape:connector-curvature="0"
         d="M 444.22,768.2 466.784,737.175 483.707,742.1108 467.489,768.9048 444.22,768.19968 Z"
         id="path12" />
      <path
         style="fill:#54b59d;fill-rule:evenodd;stroke:#000000;stroke-width:2.0999999;stroke-linecap:round;stroke-linejoin:round"
         inkscape:connector-curvature="0"
         d="M 379.35,505.19 399.798,571.471 340.568,670.187 366.657,688.52 437.608,575.99 C 437.608,575.99 437.8975,572.969 437.98497,560.261 438.07245,547.553 411.78397,496.027 411.78397,496.027 L 379.34897,505.1935 Z"
         id="path14" />
      <path
         style="fill:#fef2ec;fill-rule:evenodd;stroke:#000000;stroke-width:2.0999999;stroke-linecap:round;stroke-linejoin:round"
         inkscape:connector-curvature="0"
         d="M 504.28,451.05 507.5695,461.905 509.5432,478.023 C 509.5432,478.023 501.1981,490.918 497.0432,491.51 492.8883,492.102 489.8148,489.5568 488.8195,486.5758 487.8242,483.5948 493.0958,476.0498 493.0958,476.0498 L 497.7011,465.1948 490.1353,468.8132 491.12214,474.4053 487.83264,476.379 484.87214,469.1422 484.21425,464.5369 488.49055,450.7209 501.64855,446.4446 504.28015,451.0499 Z"
         id="path16" />
      <path
         style="fill:#54b59d;fill-rule:evenodd;stroke:#000000;stroke-width:2.0999999;stroke-linecap:round;stroke-linejoin:round"
         inkscape:connector-curvature="0"
         d="M 363.13,518.59 485.82,513.6542 468.192,319.7442 480.179,455.1242 508.587,449.7317 495.692,311.2817 C 495.692,311.2817 485.114,284.4337 473.041,278.4477 456.294,270.1456 403.322,272.5 403.322,272.5 403.322,272.5 374.05,269.6135 364.051,276.3642 346.784,288.0212 334.926,337.3702 334.926,337.3702 L 342.6822,421.2792 377.9382,419.869 367.3612,499.547 363.1305,518.585 Z"
         id="path18" />
      <path
         style="fill:#ae8d64;fill-rule:evenodd;stroke:#000000;stroke-width:2.0999999;stroke-linecap:round;stroke-linejoin:round"
         inkscape:connector-curvature="0"
         d="M 403.29,434.6 345.066,435.2579 347.0397,452.6919 405.2637,451.3761 403.29,434.6001 Z"
         id="path20" />
      <path
         style="fill:none;stroke:#000000;stroke-width:2.0999999;stroke-linecap:round;stroke-linejoin:round"
         inkscape:connector-curvature="0"
         d="M 377.24,421.29 365.958,362.06 385.701,312.702"
         id="path22" />
      <path
         style="fill:#fef2ec;fill-rule:evenodd;stroke:#000000;stroke-width:2.0999999;stroke-linecap:round;stroke-linejoin:round"
         inkscape:connector-curvature="0"
         d="M 394.16,272.51 424.149,321.648 445.634,275.33 394.161,272.5096 Z"
         id="path24" />
      <path
         style="fill:none;stroke:#000000;stroke-width:2.0999999;stroke-linecap:round;stroke-linejoin:round"
         inkscape:connector-curvature="0"
         d="M 393.45,273.21 389.2193,293.658 402.6163,295.7733 402.6163,319.7473 423.7693,321.8626 446.3333,309.1706 438.577,295.7736 456.205,288.7225 444.923,275.3255"
         id="path26" />
      <path
         style="fill:none;stroke:#000000;stroke-width:2.0999999;stroke-linecap:round;stroke-linejoin:round"
         inkscape:connector-curvature="0"
         d="M 424.48,321.86 425.16222,514.93"
         id="path28" />
      <rect
         style="fill:#fef2ec;fill-rule:evenodd;stroke:#000000;stroke-width:2.0999999;stroke-linecap:round;stroke-linejoin:round"
         x="377.79001"
         y="169.41"
         width="89.526001"
         height="107.68"
         rx="31.528999"
         ry="47.327"
         id="rect30" />
      <path
         style="fill:#4c4030;fill-rule:evenodd;stroke:#000000;stroke-width:2.0999999;stroke-linecap:round;stroke-linejoin:round"
         inkscape:connector-curvature="0"
         d="M 376.53,219.62 C 381.0272,215.4319 384.532,218.4265 392.108,218.4265 395.1563,236.1945 400.2242,226.4909 400.7006,210.3421 400.7006,204.534 397.494,195.6821 404.0293,192.8261 407.5697,191.2788 416.9723,190.7108 420.9523,190.7108 428.0815,190.7108 432.0973,191.34755 437.8753,194.2364 444.5426,197.57 448.3623,200.1667 456.2083,201.2875 462.9967,202.25727 471.9913,202.6509 474.5413,204.108 478.8316,206.5596 475.03465,194.094 473.83619,189.301 472.65539,184.5779 463.86279,177.968 461.14419,176.609 457.60189,174.8378 453.84869,169.0831 449.15719,166.7374 442.27379,163.2957 436.51319,161.8016 428.70919,161.8016 423.08929,161.8016 417.13719,161.34529 412.49119,162.50671 407.39039,163.78191 397.40819,165.63571 396.27319,161.09651 395.49945,158.00151 391.33739,152.88261 391.33739,158.98121 391.33739,165.76691 387.58749,158.05179 385.69649,156.16081 384.47469,154.93901 388.33069,165.85411 378.64539,163.91701 370.51239,162.29041 377.60769,167.89511 378.64539,173.08351 379.77259,178.71951 374.62689,182.74291 372.29939,185.07051 367.53589,189.83401 367.58239,191.14901 370.18399,196.35251 373.01019,202.00501 373.70959,202.77851 373.70959,209.74951 373.70959,214.39091 373.5823,215.19951 376.53009,219.62111 Z"
         id="path32" />
      <path
         style="fill:none;stroke:#000000;stroke-width:2.0999999;stroke-linecap:round;stroke-linejoin:round"
         inkscape:connector-curvature="0"
         d="M 415.08,260.7 C 416.9133,255.3996 420.3594,255.2421 421.1259,255.0504 426.2095,253.7795 433.4279,254.1891 437.3439,255.75552 439.8926,256.77502 440.2134,258.11592 440.8695,261.39642"
         id="path34" />
      <path
         style="fill:none;stroke:#000000;stroke-width:2.0999999;stroke-linecap:round;stroke-linejoin:round"
         inkscape:connector-curvature="0"
         d="M 433.8,229.82 C 436.6274,230.951 437.3256,236.9028 437.3256,241.102 437.3256,243.7681 431.1191,244.6276 428.8642,244.6276"
         id="path36" />
      <path
         style="fill:none;stroke:#000000;stroke-width:2.0999999;stroke-linecap:round;stroke-linejoin:round"
         inkscape:connector-curvature="0"
         d="M 424.48,201.99 C 424.48,204.4222 418.5521,208.127 415.3135,209.7463 413.1927,210.8067 411.1633,212.5466 408.2624,213.2719"
         id="path38" />
      <path
         style="fill:none;stroke:#000000;stroke-width:2.0999999;stroke-linecap:round;stroke-linejoin:round"
         inkscape:connector-curvature="0"
         d="M 447.75,204.11 C 447.36033,204.30483 452.9148,211.2756 455.5062,212.5714 457.2808,213.45868 460.4611,212.03779 461.1471,211.86628"
         id="path40" />
      <rect
         style="fill:#302a22;fill-rule:evenodd;stroke:#000000;stroke-width:2.0999999;stroke-linecap:round;stroke-linejoin:round"
         x="412.48999"
         y="219.62"
         width="14.807"
         height="14.102"
         rx="31.528999"
         ry="14.102"
         id="rect42" />
      <rect
         style="fill:#302a22;fill-rule:evenodd;stroke:#000000;stroke-width:2.0999999;stroke-linecap:round;stroke-linejoin:round"
         x="443.16"
         y="220.33"
         width="14.807"
         height="14.102"
         rx="31.528999"
         ry="14.102"
         id="rect44" />
      <path
         style="fill:#54b59d;fill-rule:evenodd;stroke:#000000;stroke-width:2.0999999;stroke-linecap:round;stroke-linejoin:round"
         inkscape:connector-curvature="0"
         d="M 401.21,704.04 462.341,702.3964 462.341,723.5494 397.684,725.8982 401.2096,704.0392 Z"
         id="path46" />
      <path
         style="fill:#eceff2;fill-rule:evenodd;stroke:#000000;stroke-width:2.16190004;stroke-linecap:round;stroke-linejoin:round"
         inkscape:connector-curvature="0"
         d="M 387.13,575.74 450.312,599.786 C 436.803,632.918 417.061,663.401 393.165,689.246 426.9,695.4495 420.546,730.345 416.663,736.536 409.0809,748.753 365.196,748.279 349.082,722.946 L 316.624,689.34 C 316.28334,658.29 349.874,616.973 368.576,604.14 L 387.13,575.74 Z"
         id="path48" />
      <path
         style="fill:none;stroke:#000000;stroke-width:1.9849;stroke-linecap:round;stroke-linejoin:round"
         inkscape:connector-curvature="0"
         d="M 374.52,593.87 440.456,619.574"
         id="path50" />
      <path
         style="fill:none;stroke:#000000;stroke-width:2.0999999;stroke-linecap:round;stroke-linejoin:round"
         inkscape:connector-curvature="0"
         d="M 365.79,606.1 428.374,641.246"
         id="path52" />
      <path
         style="fill:none;stroke:#000000;stroke-width:2.00279999;stroke-linecap:round;stroke-linejoin:round"
         inkscape:connector-curvature="0"
         d="M 351.1,622.24 421.026,653.783"
         id="path54" />
      <path
         style="fill:none;stroke:#000000;stroke-width:2.0999999;stroke-linecap:round;stroke-linejoin:round"
         inkscape:connector-curvature="0"
         d="M 341.59,631.23 407.874,670.384"
         id="path56" />
      <path
         style="fill:none;stroke:#000000;stroke-width:2.0999999;stroke-linecap:round;stroke-linejoin:round"
         inkscape:connector-curvature="0"
         d="M 331.73,645.26 398.939,682.41"
         id="path58" />
      <path
         style="fill:none;stroke:#000000;stroke-width:2.0999999;stroke-linecap:round;stroke-linejoin:round"
         inkscape:connector-curvature="0"
         d="M 320.01,670.38 393.23,689.186"
         id="path60" />
      <path
         style="fill:none;stroke:#000000;stroke-width:2.0999999;stroke-linecap:round;stroke-linejoin:round"
         inkscape:connector-curvature="0"
         d="M 316.47,689.04 412.504,700.139"
         id="path62" />
      <path
         style="fill:none;stroke:#000000;stroke-width:2.0999999;stroke-linecap:round;stroke-linejoin:round"
         inkscape:connector-curvature="0"
         d="M 342.67,715.39 418.048,709.8407"
         id="path64" />
      <path
         style="fill:none;stroke:#000000;stroke-width:2.3427;stroke-linecap:round;stroke-linejoin:round"
         inkscape:connector-curvature="0"
         d="M 358.98,732.23 418.084,718.291"
         id="path66" />
      <path
         style="fill:#ae8d64;fill-rule:evenodd;stroke:#000000;stroke-width:2.0999999;stroke-linecap:round;stroke-linejoin:round"
         inkscape:connector-curvature="0"
         d="M 363.49,499.4 354.2795,768.81 C 360.5295,778.1302 370.0685,777.253 375.9905,768.15211 L 385.53,499.40211 363.491,499.40211 Z"
         id="path68" />
      <path
         style="fill:#ae8d64;fill-rule:evenodd;stroke:#000000;stroke-width:2.0999999;stroke-linecap:round;stroke-linejoin:round"
         inkscape:connector-curvature="0"
         d="M 327.3,343.48 335.8526,456.97 359.5366,510.917 389.7996,512.2328 411.5106,454.9958 419.0764,342.1658 402.3004,340.5211 399.9978,460.5911 388.8138,491.5121 358.2218,490.52526 352.6297,459.60426 346.7087,344.47426 327.3007,343.48741 Z"
         id="path70" />
      <rect
         style="fill:#bdcad8;fill-rule:evenodd;stroke:#000000;stroke-width:2.0999999;stroke-linecap:round;stroke-linejoin:round"
         x="324.67999"
         y="326.72"
         width="94.713997"
         height="28.924999"
         rx="31.978001"
         ry="9.4895"
         id="rect72" />
      <path
         style="fill:#fef2ec;fill-rule:evenodd;stroke:#000000;stroke-width:2.0999999;stroke-linecap:round;stroke-linejoin:round"
         inkscape:connector-curvature="0"
         d="M 346.38,420.13 345.0642,458.946 C 345.0642,458.946 348.8571,465.3782 351.6432,466.5118 359.4391,469.684 371.6752,467.03365 379.6042,464.2092 381.4092,463.56618 383.9286,462.2612 384.8674,460.5908 385.73901,459.0399 385.3505,452.9741 385.3505,452.9741 L 378.2885,452.69605 375.328,434.93305 391.621,434.31646 388.0026,427.07966 374.3406,418.15676 346.3796,420.13046 Z"
         id="path74" />
      <path
         style="fill:#fbfbf0;fill-rule:evenodd;stroke:#000000;stroke-width:3.17389989;stroke-linecap:round;stroke-linejoin:round"
         inkscape:connector-curvature="0"
         transform="matrix(0.60801,0,0,0.72001,169.86,94.354)"
         d="M 446.47,346.83 A 6.1245,8.57434 0 1 1 434.221,346.83 6.1245,8.57434 0 1 1 446.47,346.83 Z"
         id="path76" />
      <path
         style="fill:#fbfbf0;fill-rule:evenodd;stroke:#000000;stroke-width:3.17389989;stroke-linecap:round;stroke-linejoin:round"
         inkscape:connector-curvature="0"
         transform="matrix(0.60801,0,0,0.72001,169.55,121.61)"
         d="M 446.47,346.83 A 6.1245,8.57434 0 1 1 434.221,346.83 6.1245,8.57434 0 1 1 446.47,346.83 Z"
         id="path78" />
      <path
         style="fill:#fbfbf0;fill-rule:evenodd;stroke:#000000;stroke-width:3.17389989;stroke-linecap:round;stroke-linejoin:round"
         inkscape:connector-curvature="0"
         transform="matrix(0.60801,0,0,0.72001,168.94,146.11)"
         d="M 446.47,346.83 A 6.1245,8.57434 0 1 1 434.221,346.83 6.1245,8.57434 0 1 1 446.47,346.83 Z"
         id="path80" />
      <path
         style="fill:#fbfbf0;fill-rule:evenodd;stroke:#000000;stroke-width:3.17389989;stroke-linecap:round;stroke-linejoin:round"
         inkscape:connector-curvature="0"
         transform="matrix(0.60801,0,0,0.72001,168.78,170.45)"
         d="M 446.47,346.83 A 6.1245,8.57434 0 1 1 434.221,346.83 6.1245,8.57434 0 1 1 446.47,346.83 Z"
         id="path82" />
      <path
         style="fill:#fbfbf0;fill-rule:evenodd;stroke:#000000;stroke-width:3.17389989;stroke-linecap:round;stroke-linejoin:round"
         inkscape:connector-curvature="0"
         transform="matrix(0.60801,0,0,0.72001,168.48,197.7)"
         d="M 446.47,346.83 A 6.1245,8.57434 0 1 1 434.221,346.83 6.1245,8.57434 0 1 1 446.47,346.83 Z"
         id="path84" />
      <path
         style="fill:#fbfbf0;fill-rule:evenodd;stroke:#000000;stroke-width:3.17389989;stroke-linecap:round;stroke-linejoin:round"
         inkscape:connector-curvature="0"
         transform="matrix(0.60801,0,0,0.72001,167.86,222.2)"
         d="M 446.47,346.83 A 6.1245,8.57434 0 1 1 434.221,346.83 6.1245,8.57434 0 1 1 446.47,346.83 Z"
         id="path86" />
      <path
         style="fill:#fbfbf0;fill-rule:evenodd;stroke:#000000;stroke-width:3.17389989;stroke-linecap:round;stroke-linejoin:round"
         inkscape:connector-curvature="0"
         transform="matrix(0.60801,0,0,0.72001,167.1,244.1)"
         d="M 446.47,346.83 A 6.1245,8.57434 0 1 1 434.221,346.83 6.1245,8.57434 0 1 1 446.47,346.83 Z"
         id="path88" />
      <path
         style="fill:#54b59d;fill-rule:evenodd;stroke:#000000;stroke-width:2.0999999;stroke-linecap:round;stroke-linejoin:round"
         inkscape:connector-curvature="0"
         d="M 382.96,419 344.454,424.6008 337.6863,384.2278 331.3853,342.9218 340.2533,320.7518 366.6243,318.6515 382.7263,320.5185 365.6903,362.2915 375.7253,397.2965 382.9597,418.9995 Z"
         id="path90" />
      <path
         style="fill:#54b59d;fill-rule:evenodd"
         inkscape:connector-curvature="0"
         d="M 341.38,319.4 340.38008,322.9322 380.42508,323.46898 383.12298,316.04178 341.37998,319.39998 Z"
         id="path92" />
      <path
         style="fill:#fef2ec;fill-rule:evenodd;stroke:#000000;stroke-width:2.0999999;stroke-linecap:round;stroke-linejoin:round"
         inkscape:connector-curvature="0"
         transform="matrix(0,1.1723,-1.2395,0,660.9,-219.97)"
         d="M 390.92,225.05 A 7.245,6.3201 0 1 1 376.646,223.5189"
         id="path94" />
    </g>
  </g>
</svg>
