<?xml version="1.0" encoding="UTF-8" standalone="no"?>
<!-- Created with Inkscape (http://www.inkscape.org/) -->

<svg
   xmlns:dc="http://purl.org/dc/elements/1.1/"
   xmlns:cc="http://creativecommons.org/ns#"
   xmlns:rdf="http://www.w3.org/1999/02/22-rdf-syntax-ns#"
   xmlns:svg="http://www.w3.org/2000/svg"
   xmlns="http://www.w3.org/2000/svg"
   xmlns:xlink="http://www.w3.org/1999/xlink"
   xmlns:sodipodi="http://sodipodi.sourceforge.net/DTD/sodipodi-0.dtd"
   xmlns:inkscape="http://www.inkscape.org/namespaces/inkscape"
   width="210mm"
   height="297mm"
   viewBox="0 0 744.09448819 1052.3622047"
   id="svg4222"
   version="1.1"
   inkscape:version="0.91 r13725"
   sodipodi:docname="weapons.svg"
   inkscape:export-filename="/home/becky/Documents/GameJams/AdventitiousAsylum/assets/items/weapons/sheep-with-staple-gun.png"
   inkscape:export-xdpi="90"
   inkscape:export-ydpi="90">
  <defs
     id="defs4224">
    <linearGradient
       id="e"
       x1="226.33"
       x2="194.16"
       y1="219.7"
       y2="276.67001"
       gradientUnits="userSpaceOnUse"
       xlink:href="#a"
       gradientTransform="translate(-104.16161,-202.87744)" />
    <linearGradient
       id="a">
      <stop
         stop-color="#999"
         offset="0"
         id="stop7" />
      <stop
         stop-color="#999"
         stop-opacity="0"
         offset="1"
         id="stop9" />
    </linearGradient>
    <linearGradient
       id="f"
       x2="0"
       y1="326.32001"
       y2="276.67001"
       gradientUnits="userSpaceOnUse"
       xlink:href="#a"
       gradientTransform="translate(-104.16161,-202.87744)" />
  </defs>
  <sodipodi:namedview
     id="base"
     pagecolor="#ffffff"
     bordercolor="#666666"
     borderopacity="1.0"
     inkscape:pageopacity="0.0"
     inkscape:pageshadow="2"
     inkscape:zoom="2.4699904"
     inkscape:cx="469.88778"
     inkscape:cy="603.03878"
     inkscape:document-units="px"
     inkscape:current-layer="layer1"
     showgrid="false"
     inkscape:window-width="1920"
     inkscape:window-height="1056"
     inkscape:window-x="1920"
     inkscape:window-y="24"
     inkscape:window-maximized="1" />
  <metadata
     id="metadata4227">
    <rdf:RDF>
      <cc:Work
         rdf:about="">
        <dc:format>image/svg+xml</dc:format>
        <dc:type
           rdf:resource="http://purl.org/dc/dcmitype/StillImage" />
      </cc:Work>
    </rdf:RDF>
  </metadata>
  <g
     inkscape:label="Layer 1"
     inkscape:groupmode="layer"
     id="layer1">
    <g
       id="g4812"
       transform="translate(-25.101312,-26.720752)"
       inkscape:export-filename="/home/becky/Documents/GameJams/AdventitiousAsylum/assets/items/weapons/pillow.png"
       inkscape:export-xdpi="93.449402"
       inkscape:export-ydpi="93.449402">
      <path
         d="M 50.87839,110.50256 C 86.41639,102.07126 111.56939,101.12246 134.78339,101.57166 135.93039,100.95303 136.78469,99.654855 136.89509,96.614455 136.89509,96.614455 128.66919,53.056455 127.96849,51.616455 124.94019,45.358255 127.41177,41.380455 128.35243,41.428455 129.01473,36.931055 120.57283,36.824055 117.85643,37.231455 93.61543,58.980455 74.31243,49.664455 45.27743,45.733855 44.32718,47.004255 42.05713,46.318395 43.66483,51.374455 46.96193,68.877455 53.81983,86.567455 50.56133,103.72846 L 50.89727,110.50256 50.89727,110.50304 Z"
         id="path40"
         inkscape:connector-curvature="0"
         style="fill:#ffffff;stroke:#000000;stroke-opacity:1" />
      <path
         d="M 50.87839,110.50256 C 86.41639,102.07126 111.56939,101.12246 134.78339,101.57166 135.93039,100.95303 136.78469,99.654855 136.89509,96.614455 136.89509,96.614455 128.66919,53.056455 127.96849,51.616455 124.94019,45.358255 127.41177,41.380455 128.35243,41.428455 129.01473,36.931055 120.57283,36.824055 117.85643,37.231455 93.61543,58.980455 74.31243,49.664455 45.27743,45.733855 44.32718,47.004255 42.05713,46.318395 43.66483,51.374455 46.96193,68.877455 53.81983,86.567455 50.56133,103.72846 L 50.89727,110.50256 50.89727,110.50304 Z"
         id="path42"
         style="opacity:0.33043003;fill:url(#f);stroke:#000000;stroke-opacity:1"
         inkscape:connector-curvature="0" />
      <path
         d="M 50.87839,110.50256 C 86.41639,102.07126 111.56939,101.12246 134.78339,101.57166 135.93039,100.95303 136.78469,99.654855 136.89509,96.614455 136.89509,96.614455 128.66919,53.056455 127.96849,51.616455 124.94019,45.358255 127.41177,41.380455 128.35243,41.428455 129.01473,36.931055 120.57283,36.824055 117.85643,37.231455 93.61543,58.980455 74.31243,49.664455 45.27743,45.733855 44.32718,47.004255 42.05713,46.318395 43.66483,51.374455 46.96193,68.877455 53.81983,86.567455 50.56133,103.72846 L 50.89727,110.50256 50.89727,110.50304 Z"
         id="path44"
         style="opacity:0.33043003;fill:url(#e);stroke:#000000;stroke-opacity:1"
         inkscape:connector-curvature="0" />
    </g>
    <g
       id="g4517"
       transform="matrix(0.01071605,0,0,0.01071605,481.74261,28.838213)"
       inkscape:export-filename="/home/becky/Documents/GameJams/AdventitiousAsylum/assets/weapon-images/elephant.png"
       inkscape:export-xdpi="93.449402"
       inkscape:export-ydpi="93.449402">
      <g
         id="g4340">
        <path
           class="fil3"
           d="M 20715,13983 C 20715,13983 20901,13553 20759,13101 20617,12649 20374,12096 20374,12096 20374,12096 20325,11967 20475,12096 20626,12224 20927,13021 20994,13453 21060,13886 20715,13983 20715,13983 Z"
           id="path28"
           inkscape:connector-curvature="0"
           style="fill:#4a422c" />
        <path
           class="fil5"
           d="M 4897,10849 C 5231,11291 5882,11629 6093,11732 5854,11076 5688,10412 5603,9740 5539,9227 5522,8710 5557,8187 5323,8521 5034,8984 4859,9456 4671,9960 4614,10475 4897,10849 Z"
           id="path38"
           inkscape:connector-curvature="0"
           style="fill:#8c7e57" />
        <path
           class="fil6"
           d="M 7321,15817 Z M 7424,15416 C 7369,15444 7334,15514 7316,15588 7298,15664 7298,15745 7313,15795 7315,15803 7318,15811 7321,15817 7350,15874 7394,15885 7420,15887 7451,15844 7476,15793 7493,15733 7510,15675 7519,15609 7520,15533 L 7512,15531 C 7512,15531 7516,15521 7520,15507 7519,15478 7517,15447 7513,15414 7502,15402 7481,15398 7446,15408 7438,15410 7431,15413 7424,15416 Z"
           id="path40-5"
           inkscape:connector-curvature="0"
           style="fill:#a39469" />
        <path
           class="fil6"
           d="M 7305,15826 Z M 7298,15584 C 7317,15505 7355,15431 7416,15400 7424,15396 7432,15393 7440,15390 7472,15381 7494,15381 7510,15386 7504,15339 7496,15294 7486,15252 7477,15248 7466,15247 7455,15248 7429,15251 7399,15269 7367,15296 7334,15323 7300,15361 7268,15404 7169,15538 7091,15725 7137,15833 7191,15960 7284,15979 7330,15980 L 7333,15977 C 7360,15956 7385,15932 7407,15904 7377,15900 7334,15882 7305,15826 7301,15818 7298,15810 7295,15800 7280,15747 7280,15663 7298,15584 Z"
           id="path42-3"
           inkscape:connector-curvature="0"
           style="fill:#a39469" />
        <path
           class="fil6"
           d="M 7453,15230 Z M 7120,15840 C 7072,15725 7151,15531 7253,15393 7286,15349 7321,15310 7355,15282 7389,15252 7423,15234 7453,15230 7462,15228 7472,15229 7480,15231 7473,15201 7464,15173 7455,15147 7336,15170 7167,15282 7034,15421 6961,15496 6900,15578 6863,15658 6827,15735 6814,15809 6837,15869 6851,15906 6879,15939 6924,15966 7052,16042 7205,16032 7268,16024 7281,16015 7294,16006 7308,15996 7254,15989 7170,15958 7120,15840 Z"
           id="path44-5"
           inkscape:connector-curvature="0"
           style="fill:#a39469" />
        <path
           class="fil6"
           d="M 20457,11904 C 21092,10474 21491,8241 21032,6085 20688,4471 19863,2901 18296,1742 18192,1674 18085,1607 17978,1542 15726,186 13365,-88 11461,142 9573,370 8136,1090 7701,1737 7742,1912 7787,2103 7850,2293 8276,2074 8746,1919 9254,1835 9534,1789 9826,1765 10128,1765 10788,1222 11590,1176 12050,1984 12127,2002 12483,2093 12839,2296 13153,2476 13347,2643 13416,2707 13773,2062 14545,676 14603,647 15267,315 17097,2085 17439,2702 17851,3446 18063,4217 18029,4374 17994,4533 17659,4759 17399,4914 17705,4819 18118,4701 18183,4740 18243,4776 18535,5287 18689,6183 18776,6684 18822,7308 18763,8039 18672,9179 18076,11553 17286,12614 17193,12740 17100,12835 17042,12835 16951,12835 16563,12398 16369,12173 L 16757,13406 16744,13410 C 16731,13459 16617,13593 16084,13959 15779,14168 15489,14337 15247,14463 14889,14649 14629,14744 14567,14744 14494,14744 14470,14696 14388,14537 14322,14408 14215,14198 14008,13865 13599,13205 12350,12234 12196,12116 12129,12123 12054,12125 11974,12116 11818,12099 11733,12053 11688,12010 11507,13158 11210,14324 10727,15217 10778,15198 10865,15181 11009,15184 11208,15188 11360,15226 11439,15251 11459,14747 11466,14176 11478,14065 11479,14069 11605,15224 11451,15997 11446,16019 11443,16039 11439,16058 11381,16415 11436,16785 11639,17092 11695,17175 11762,17254 11840,17327 11899,17230 12064,16969 12329,16615 12406,16512 12479,16441 12548,16395 12638,16334 12720,16314 12792,16317 12865,16321 12927,16350 12976,16387 13016,16417 13048,16452 13070,16485 13125,16566 13170,16644 13196,16692 13261,16593 13331,16516 13401,16459 13547,16340 13697,16306 13804,16338 13898,16366 14007,16494 14105,16666 14129,16707 14151,16750 14173,16794 14231,16675 14360,16438 14504,16366 14612,16312 14757,16305 14922,16377 15055,16436 15203,16548 15356,16731 15630,17060 15795,17447 15843,17570 16193,17452 16481,17293 16659,17089 17010,16687 17153,16173 17142,15646 17137,15402 16889,14420 16650,13911 16827,14172 16971,14471 17068,14786 17197,14724 17533,14518 18063,13888 18213,13710 18583,13263 18969,12662 18968,12663 18820,13097 18116,13933 17571,14579 17221,14790 17088,14852 17163,15111 17206,15379 17211,15645 17213,15743 17210,15840 17201,15937 17269,15889 17380,15820 17463,15820 17533,15821 17611,15856 17677,15938 17731,16004 17778,16101 17808,16237 17859,16464 17848,16691 17840,16784 17879,16777 17917,16770 17955,16762 18244,16703 18512,16607 18662,16465 18940,16201 18980,15837 19024,15451 19036,15336 19050,15219 19069,15101 19121,14791 19207,14609 19502,13986 19703,13561 20003,12928 20457,11904 Z"
           id="path46"
           inkscape:connector-curvature="0"
           style="fill:#a39469" />
        <path
           class="fil7"
           d="M 20457,11904 C 21092,10474 21491,8241 21032,6085 20688,4471 19863,2901 18296,1742 18192,1674 18085,1607 17978,1542 16085,402 14115,27 12404,73 11746,520 11672,1165 11704,1572 11832,1671 11949,1807 12050,1984 12127,2002 12483,2093 12839,2296 13153,2476 13347,2643 13416,2707 13773,2062 14545,676 14603,647 15267,315 17097,2085 17439,2702 17851,3446 18063,4217 18029,4374 17994,4533 17659,4759 17399,4914 17705,4819 18118,4701 18183,4740 18243,4776 18535,5287 18689,6183 18776,6684 18822,7308 18763,8039 18672,9179 18076,11553 17286,12614 17193,12740 17100,12835 17042,12835 16951,12835 16563,12398 16369,12173 L 16757,13406 16744,13410 C 16731,13459 16617,13593 16084,13959 15779,14168 15489,14337 15247,14463 14889,14649 14629,14744 14567,14744 14494,14744 14470,14696 14388,14537 14322,14408 14215,14198 14008,13865 13599,13205 12350,12234 12196,12116 12129,12123 12054,12125 11974,12116 11818,12099 11733,12053 11688,12010 11507,13158 11210,14324 10727,15217 10778,15198 10865,15181 11009,15184 11208,15188 11360,15226 11439,15251 11459,14747 11466,14176 11478,14065 11479,14069 11605,15224 11451,15997 11446,16019 11443,16039 11439,16058 11381,16415 11436,16785 11639,17092 11695,17175 11762,17254 11840,17327 11899,17230 12064,16969 12329,16615 12406,16512 12479,16441 12548,16395 12638,16334 12720,16314 12792,16317 12865,16321 12927,16350 12976,16387 13016,16417 13048,16452 13070,16485 13125,16566 13170,16644 13196,16692 13261,16593 13331,16516 13401,16459 13547,16340 13697,16306 13804,16338 13898,16366 14007,16494 14105,16666 14129,16707 14151,16750 14173,16794 14231,16675 14360,16438 14504,16366 14612,16312 14757,16305 14922,16377 15055,16436 15203,16548 15356,16731 15630,17060 15795,17447 15843,17570 16193,17452 16481,17293 16659,17089 17010,16687 17153,16173 17142,15646 17137,15402 16889,14420 16650,13911 16827,14172 16971,14471 17068,14786 17197,14724 17533,14518 18063,13888 18213,13710 18583,13263 18969,12662 18968,12663 18820,13097 18116,13933 17571,14579 17221,14790 17088,14852 17163,15111 17206,15379 17211,15645 17213,15743 17210,15840 17201,15937 17269,15889 17380,15820 17463,15820 17533,15821 17611,15856 17677,15938 17731,16004 17778,16101 17808,16237 17859,16464 17848,16691 17840,16784 17879,16777 17917,16770 17955,16762 18244,16703 18512,16607 18662,16465 18940,16201 18980,15837 19024,15451 19036,15336 19050,15219 19069,15101 19121,14791 19207,14609 19502,13986 19703,13561 20003,12928 20457,11904 Z"
           id="path48"
           inkscape:connector-curvature="0"
           style="fill:#7d6f4a" />
        <path
           class="fil8"
           d="M 13917,13731 C 13439,13080 12340,12226 12196,12116 12129,12123 12054,12125 11974,12116 11818,12099 11733,12053 11688,12010 11507,13158 11210,14324 10727,15217 10778,15198 10865,15181 11009,15184 11208,15188 11360,15226 11439,15251 11459,14747 11466,14176 11478,14065 11478,14067 11521,14457 11527,14934 11620,14781 11963,14287 12709,13930 13364,13616 13755,13676 13917,13731 Z"
           id="path50"
           inkscape:connector-curvature="0"
           style="fill:#695d3d" />
        <path
           class="fil6"
           d="M 14423,6382 C 14820,6801 15030,7328 15044,7941 15058,8552 14875,9248 14486,10006 14641,10260 14788,10563 14897,10875 15110,11481 15184,12119 14909,12491 14898,12506 14887,12520 14875,12533 14809,12610 14732,12668 14645,12711 14342,12858 13931,12809 13534,12669 13142,12530 12762,12302 12518,12092 12500,12077 12483,12061 12467,12046 12434,12060 12373,12083 12293,12100 12394,12178 13642,13143 14067,13828 14275,14162 14383,14375 14450,14505 14516,14636 14536,14675 14567,14675 14621,14675 14867,14582 15215,14401 15456,14276 15743,14109 16045,13901 16688,13460 16720,13450 16721,13450 L 16698,13448 16691,13426 16252,12030 16199,11864 16311,11998 C 16313,12000 16952,12765 17042,12765 17075,12765 17149,12682 17230,12573 18012,11523 18604,9163 18694,8034 18752,7309 18707,6691 18621,6195 18470,5321 18201,4832 18147,4799 18072,4754 17087,5088 17084,5089 L 16639,5239 17057,5025 C 17060,5024 17911,4590 17961,4359 17993,4212 17783,3466 17378,2736 17052,2146 15247,402 14634,709 14496,814 13594,2665 13238,3030 13239,3029 13294,2929 13382,2770 13331,2721 13138,2547 12804,2356 12412,2132 12021,2049 12020,2048 L 12005,2045 11997,2031 C 11573,1251 10854,1268 10235,1765 10420,1768 10608,1780 10800,1801 10429,1811 9803,1841 9624,1857 9502,1869 9383,1884 9265,1904 8179,2082 7266,2596 6594,3360 5921,4125 5487,5142 5360,6324 5294,6933 5309,7586 5414,8272 5468,8192 5519,8118 5567,8051 5614,7490 5721,6923 5893,6349 5871,6360 5848,6366 5824,6366 5714,6366 5625,6242 5625,6089 5625,6061 5628,6034 5633,6009 5647,6056 5678,6089 5713,6089 5762,6089 5802,6027 5802,5950 5802,5898 5783,5852 5756,5828 5777,5817 5800,5811 5824,5811 5908,5811 5980,5885 6009,5988 6022,5952 6034,5916 6047,5881 6039,5807 6029,5753 5962,5627 5941,5589 5914,5562 5883,5547 5851,5531 5815,5527 5779,5534 5742,5542 5705,5562 5672,5595 5625,5642 5586,5713 5567,5810 5508,6098 5610,6307 5627,6339 5636,6342 5645,6344 5652,6347 5707,6367 5822,6475 5824,6540 5773,6460 5710,6411 5638,6386 5565,6360 5483,6357 5395,6369 5448,6330 5515,6323 5571,6329 5537,6251 5470,6054 5521,5801 5543,5694 5587,5615 5640,5562 5679,5523 5724,5499 5769,5489 5816,5480 5862,5485 5903,5505 5943,5525 5977,5558 6002,5605 6042,5680 6061,5756 6068,5822 6150,5600 6241,5376 6343,5151 6271,5446 6071,6012 6019,6170 5623,7387 5525,8572 5672,9731 5855,11190 6428,12608 7290,13996 L 7306,14020 C 7409,14044 7509,14085 7606,14141 8049,13997 8492,13924 8932,13930 9361,13936 9788,14018 10208,14183 9491,14027 9382,14006 8929,13999 8518,13994 8103,14061 7687,14192 7756,14239 7823,14295 7887,14359 8086,14357 8275,14384 8453,14444 8721,14533 8965,14693 9180,14933 8776,14645 8714,14603 8432,14509 8317,14471 8197,14446 8073,14435 8299,14535 8493,14667 8650,14832 8845,15037 8985,15293 9062,15605 8841,15161 8805,15095 8600,14880 8436,14707 8230,14573 7988,14474 8338,14943 8394,15796 8394,15799 8239,15277 8260,14838 7855,14425 7855,14424 7854,14424 7853,14424 L 7854,14423 C 7853,14423 7853,14422 7853,14422 7648,14214 7416,14094 7176,14069 6940,14044 6695,14112 6457,14277 6347,14354 6256,14487 6187,14651 6113,14829 6066,15043 6050,15262 6015,15738 6151,16143 6410,16446 6679,16761 7079,16966 7558,17028 7816,17061 8112,17044 8454,16949 8797,16853 9185,16679 9624,16396 11440,15223 11815,11221 11883,9068 11888,8911 11920,8165 11958,7667 11959,7678 12034,9751 11702,11918 L 11705,11918 C 11705,11918 11722,12019 11981,12048 12176,12069 12336,12023 12412,11994 12389,11969 12367,11946 12348,11923 12043,11687 12406,10573 12460,10433 12605,10061 12850,9746 13161,9558 13346,9446 13847,9302 14167,9518 14145,9512 14123,9507 14100,9502 14164,9563 14230,9639 14297,9728 14239,9384 14094,9061 13863,8777 13639,8501 13061,8056 12833,7945 13295,8144 13658,8414 13917,8734 14184,9062 14341,9442 14383,9847 14403,9877 14423,9907 14443,9938 14814,9204 14988,8532 14975,7942 14981,7681 14815,6805 14423,6382 Z M 12967,5254 C 13033,5293 13092,5346 13137,5412 13208,5518 13245,5651 13239,5796 13234,5931 13192,6078 13107,6224 13172,6235 13230,6256 13259,6287 13106,6243 12972,6251 12853,6298 12732,6346 12625,6433 12526,6547 12564,6377 12733,6271 12827,6234 12875,6215 12968,6208 13057,6217 13139,6078 13188,5922 13193,5794 13199,5659 13165,5536 13098,5438 13058,5378 13004,5329 12944,5293 12849,5237 12738,5209 12627,5211 12252,5218 12144,5458 12044,5766 12044,5719 12051,5657 12069,5590 12141,5328 12351,5170 12626,5165 12745,5163 12866,5193 12967,5254 Z M 8544,5891 C 8738,5910 8917,5935 9062,5964 9210,5994 9325,6029 9388,6068 9445,6102 9468,6141 9452,6186 9438,6037 8953,5979 8536,5938 8333,5918 8119,5927 7903,5921 7683,5914 6869,5882 6594,6072 6663,5841 7737,5813 8544,5891 Z M 12409,5806 C 12409,5922 12503,6017 12620,6017 12668,6017 12713,6000 12749,5973 12750,5987 12751,6002 12751,6017 12751,6206 12598,6359 12409,6359 12220,6359 12067,6206 12067,6017 12067,5828 12220,5674 12409,5674 12424,5674 12439,5675 12453,5677 12426,5713 12409,5758 12409,5806 Z M 6062,7924 C 6698,7741 7339,7664 7984,7677 8629,7691 9278,7796 9929,7977 8542,7739 8228,7752 7983,7747 7742,7741 6747,7755 6062,7924 Z M 14394,6353 C 14404,6362 14414,6372 14423,6382 14414,6372 14404,6362 14394,6353 Z M 8478,11079 C 9121,11041 9776,11094 10440,11222 9039,11096 8727,11134 8482,11148 8241,11163 7250,11256 6582,11480 7201,11246 7834,11117 8478,11079 Z M 7382,13266 C 7451,13031 8526,12945 9333,12980 9527,12988 9705,13003 9850,13025 9998,13046 10113,13075 10177,13110 10233,13141 10256,13179 10240,13225 10227,13076 9741,13045 9324,13027 9121,13018 8907,13038 8691,13044 8472,13049 7657,13062 7382,13266 Z M 6175,9863 C 6918,9629 7676,9501 8448,9462 9219,9424 10004,9477 10800,9605 9120,9479 8746,9517 8453,9531 8164,9546 6977,9639 6175,9863 Z M 6330,4833 C 6418,4912 6382,5100 6159,5150 5937,5199 5690,5114 5690,5114 5690,5116 5741,4999 5865,4885 5989,4770 6242,4754 6330,4833 Z M 8626,4258 C 8968,4291 9308,4414 9645,4614 8920,4336 8752,4340 8621,4327 8493,4315 7963,4300 7589,4450 7938,4285 8283,4226 8626,4258 Z M 12708,4547 C 12708,4547 12387,4658 12098,4594 11809,4529 11762,4284 11876,4182 11990,4080 12319,4101 12480,4249 12642,4398 12708,4550 12708,4547 Z M 7580,15385 C 7598,15530 7589,15651 7560,15752 7524,15876 7458,15968 7376,16032 7294,16096 7197,16131 7099,16143 7010,16154 6920,16146 6840,16123 6936,16125 7041,16136 7175,16075 7096,16074 6992,16060 6900,16006 6846,15973 6812,15932 6794,15885 6766,15812 6780,15726 6821,15639 6860,15554 6925,15467 7000,15389 7137,15247 7310,15132 7439,15103 7263,14662 6872,14595 6858,14565 6859,14565 7497,14721 7580,15385 Z"
           id="path52"
           inkscape:connector-curvature="0"
           style="fill:#a39469" />
        <path
           class="fil5"
           d="M 14423,6382 C 14820,6801 15030,7328 15044,7941 15058,8552 14875,9248 14486,10006 14641,10260 14788,10563 14897,10875 15110,11481 15184,12119 14909,12491 14898,12506 14887,12520 14875,12533 14809,12610 14732,12668 14645,12711 14342,12858 13931,12809 13534,12669 13142,12530 12762,12302 12518,12092 12500,12077 12483,12061 12467,12046 12434,12060 12373,12083 12293,12100 12394,12178 13642,13143 14067,13828 14275,14162 14383,14375 14450,14505 14516,14636 14536,14675 14567,14675 14621,14675 14867,14582 15215,14401 15456,14276 15743,14109 16045,13901 16688,13460 16720,13450 16721,13450 L 16698,13448 16691,13426 16252,12030 16199,11864 16311,11998 C 16313,12000 16952,12765 17042,12765 17075,12765 17149,12682 17230,12573 18012,11523 18604,9163 18694,8034 18752,7309 18707,6691 18621,6195 18470,5321 18201,4832 18147,4799 18072,4754 17087,5088 17084,5089 L 16639,5239 17057,5025 C 17060,5024 17911,4590 17961,4359 17993,4212 17783,3466 17378,2736 17052,2146 15247,402 14634,709 14496,814 13594,2665 13238,3030 13239,3029 13294,2929 13382,2770 13331,2721 13138,2547 12804,2356 12412,2132 12021,2049 12020,2048 L 12005,2045 11997,2031 C 11913,1876 11817,1752 11712,1658 11734,1839 11773,1955 11773,1955 11773,1955 11597,1585 11307,1439 11192,1411 11072,1408 10951,1426 10849,1579 11348,2074 11348,2074 11348,2074 10440,1765 9180,2700 8693,3061 8319,3589 8056,4291 8247,4250 8437,4241 8626,4258 8968,4291 9308,4414 9645,4614 8920,4336 8752,4340 8621,4327 8540,4320 8298,4311 8037,4343 7878,4780 7761,5283 7686,5852 7970,5851 8272,5865 8544,5891 8738,5910 8917,5935 9062,5964 9210,5994 9325,6029 9388,6068 9445,6102 9468,6141 9452,6186 9438,6037 8953,5979 8536,5938 8333,5918 8119,5927 7903,5921 7854,5919 7774,5916 7678,5915 7611,6446 7580,7035 7583,7681 7717,7676 7851,7675 7984,7677 8629,7691 9278,7796 9929,7977 8542,7739 8228,7752 7983,7747 7910,7745 7767,7745 7584,7751 7588,8136 7603,8542 7632,8968 7644,9159 7657,9347 7669,9533 7927,9499 8186,9475 8448,9462 9219,9424 10004,9477 10800,9605 9120,9479 8746,9517 8453,9531 8327,9538 8032,9559 7673,9599 7709,10148 7743,10671 7774,11159 8007,11119 8242,11093 8478,11079 9121,11041 9776,11094 10440,11222 9039,11096 8727,11134 8482,11148 8371,11155 8102,11178 7778,11223 7822,11914 7861,12532 7893,13049 8293,12980 8859,12959 9333,12980 9527,12988 9705,13003 9850,13025 9998,13046 10113,13075 10177,13110 10233,13141 10256,13179 10240,13225 10227,13076 9741,13045 9324,13027 9121,13018 8907,13038 8691,13044 8559,13047 8212,13053 7896,13102 7919,13472 7938,13789 7954,14043 8280,13965 8607,13926 8932,13930 9361,13936 9788,14018 10208,14183 9491,14027 9382,14006 8929,13999 8607,13995 8283,14035 7958,14116 L 7973,14360 C 8140,14365 8301,14393 8453,14444 8721,14533 8965,14693 9180,14933 8776,14645 8714,14603 8432,14509 8317,14471 8197,14446 8073,14435 8299,14535 8493,14667 8650,14832 8845,15037 8985,15293 9062,15605 8841,15161 8805,15095 8600,14880 8436,14707 8230,14573 7988,14474 8338,14943 8394,15796 8394,15799 8258,15341 8257,14946 7986,14578 7992,14686 7996,14744 7996,14744 7996,14744 7382,14069 7106,14358 7026,14441 7026,14544 7065,14649 7260,14754 7528,14970 7580,15385 7598,15530 7589,15651 7560,15752 7524,15876 7458,15968 7376,16032 7294,16096 7197,16131 7099,16143 7010,16154 6920,16146 6840,16123 6936,16125 7041,16136 7175,16075 7096,16074 6992,16060 6900,16006 6846,15973 6812,15932 6794,15885 6766,15812 6780,15726 6821,15639 6860,15554 6925,15467 7000,15389 7045,15342 7094,15298 7145,15259 6851,15332 6429,15466 6067,15691 6113,15984 6233,16239 6410,16446 6679,16761 7079,16966 7558,17028 7816,17061 8112,17044 8454,16949 8797,16853 9185,16679 9624,16396 11440,15223 11815,11221 11883,9068 11888,8911 11920,8165 11958,7667 11959,7678 12034,9751 11702,11918 L 11705,11918 C 11705,11918 11722,12019 11981,12048 12176,12069 12336,12023 12412,11994 12389,11969 12367,11946 12348,11923 12043,11687 12406,10573 12460,10433 12605,10061 12850,9746 13161,9558 13346,9446 13847,9302 14167,9518 14145,9512 14123,9507 14100,9502 14164,9563 14230,9639 14297,9728 14239,9384 14094,9061 13863,8777 13639,8501 13061,8056 12833,7945 13295,8144 13658,8414 13917,8734 14184,9062 14341,9442 14383,9847 14403,9877 14423,9907 14443,9938 14814,9204 14988,8532 14975,7942 14981,7681 14815,6805 14423,6382 Z M 7421,15107 C 7316,15012 7146,14841 7074,14671 7198,14746 7347,14874 7439,15103 7433,15104 7427,15106 7421,15107 Z M 12967,5254 C 13033,5293 13092,5346 13137,5412 13208,5518 13245,5651 13239,5796 13234,5931 13192,6078 13107,6224 13172,6235 13230,6256 13259,6287 13106,6243 12972,6251 12853,6298 12732,6346 12625,6433 12526,6547 12564,6377 12733,6271 12827,6234 12875,6215 12968,6208 13057,6217 13139,6078 13188,5922 13193,5794 13199,5659 13165,5536 13098,5438 13058,5378 13004,5329 12944,5293 12849,5237 12738,5209 12627,5211 12252,5218 12144,5458 12044,5766 12044,5719 12051,5657 12069,5590 12141,5328 12351,5170 12626,5165 12745,5163 12866,5193 12967,5254 Z M 12409,5806 C 12409,5922 12503,6017 12620,6017 12668,6017 12713,6000 12749,5973 12750,5987 12751,6002 12751,6017 12751,6206 12598,6359 12409,6359 12220,6359 12067,6206 12067,6017 12067,5828 12220,5674 12409,5674 12424,5674 12439,5675 12453,5677 12426,5713 12409,5758 12409,5806 Z M 14394,6353 C 14404,6362 14414,6372 14423,6382 14414,6372 14404,6362 14394,6353 Z M 12708,4547 C 12708,4547 12387,4658 12098,4594 11809,4529 11762,4284 11876,4182 11990,4080 12319,4101 12480,4249 12642,4398 12708,4550 12708,4547 Z"
           id="path54"
           inkscape:connector-curvature="0"
           style="fill:#8c7e57" />
        <path
           class="fil6"
           d="M 14271,14172 C 14354,14318 14410,14427 14450,14505 14516,14636 14536,14675 14567,14675 14621,14675 14867,14582 15215,14401 15456,14276 15743,14109 16045,13901 16688,13460 16720,13450 16721,13450 L 16698,13448 16691,13426 16252,12030 16199,11864 16311,11998 C 16313,12000 16952,12765 17042,12765 17075,12765 17149,12682 17230,12573 18012,11523 18604,9163 18694,8034 18752,7309 18707,6691 18621,6195 18470,5321 18201,4832 18147,4799 18072,4754 17087,5088 17084,5089 L 16639,5239 17057,5025 C 17060,5024 17911,4590 17961,4359 17993,4212 17783,3466 17378,2736 17052,2146 15247,402 14634,709 14546,776 14146,1555 13776,2204 14177,1818 14826,1236 15045,1293 15370,1378 17212,3294 17141,4119 17071,4944 15485,5695 15485,5695 L 17847,5485 C 17847,5485 17989,5485 17989,7667 17989,9850 16928,11830 16928,11830 L 15777,10982 C 15777,10982 15978,13044 15777,13341 15641,13542 14836,13938 14271,14172 Z"
           id="path56"
           inkscape:connector-curvature="0"
           style="fill:#a39469" />
        <path
           class="fil9"
           d="M 12585,6419 C 12520,6424 12364,6426 12235,6353 12183,6323 12138,6257 12104,6171 12160,6283 12276,6359 12409,6359 12598,6359 12751,6206 12751,6017 12751,6002 12750,5987 12749,5973 12713,6000 12668,6017 12620,6017 12503,6017 12409,5922 12409,5806 12409,5758 12426,5713 12453,5677 12439,5675 12424,5674 12409,5674 12220,5674 12067,5828 12067,6017 12067,6035 12068,6053 12071,6070 12046,5972 12035,5862 12044,5760 L 12044,5766 C 12144,5458 12252,5218 12627,5211 12738,5209 12849,5237 12944,5293 13004,5329 13058,5378 13098,5438 13165,5536 13199,5659 13193,5794 13188,5922 13139,6078 13057,6217 12968,6208 12875,6215 12827,6234 12759,6261 12653,6323 12585,6419 Z"
           id="path58"
           inkscape:connector-curvature="0"
           style="fill:#fefefe" />
        <path
           class="fil9"
           d="M 5853,6485 C 5866,6440 5879,6394 5893,6349 5871,6360 5848,6366 5824,6366 5714,6366 5625,6242 5625,6089 5625,6061 5628,6034 5633,6009 5647,6056 5678,6089 5713,6089 5762,6089 5802,6027 5802,5950 5802,5898 5783,5852 5756,5828 5777,5817 5800,5811 5824,5811 5908,5811 5980,5885 6009,5988 6022,5952 6034,5916 6047,5881 6039,5807 6029,5753 5962,5627 5941,5589 5914,5562 5883,5547 5851,5531 5815,5527 5779,5534 5742,5542 5705,5562 5672,5595 5625,5642 5586,5713 5567,5810 5508,6098 5610,6307 5627,6339 5636,6342 5645,6344 5652,6347 5696,6363 5776,6433 5809,6494 5820,6495 5837,6492 5853,6485 Z"
           id="path60"
           inkscape:connector-curvature="0"
           style="fill:#fefefe" />
        <path
           class="fil10"
           d="M 6542,3315 C 6898,2910 7320,2574 7799,2320 L 7788,2324 C 7718,2116 7671,1913 7628,1729 7568,1473 7517,1256 7433,1134 7346,1008 7215,989 6976,1149 L 6976,1637 6914,1550 6725,1288 C 6549,1379 5469,2015 4418,4467 3341,6978 3801,8972 3864,9216 3995,9217 4572,9221 4629,9216 L 4639,9216 C 4693,9212 4693,9213 4738,9210 4589,9400 4064,9881 3997,9944 3996,9992 4001,10179 4110,10600 4209,10978 4389,11566 4471,11830 4557,11308 4712,10723 4722,10684 4564,10317 4631,9870 4794,9432 4933,9058 5154,8672 5358,8358 5241,7639 5222,6954 5291,6317 5420,5120 5859,4090 6542,3315 Z"
           id="path62"
           inkscape:connector-curvature="0"
           style="fill:#bfad7c" />
        <path
           class="fil10"
           d="M 6314,12288 C 6220,12356 5882,12593 5554,12755 5487,12789 5413,12817 5336,12839 5433,12981 5531,13110 5630,13228 5731,13348 5832,13458 5934,13559 6019,13447 6210,13198 6313,13071 6412,12948 6499,12826 6535,12774 6457,12613 6383,12451 6314,12288 Z"
           id="path64"
           inkscape:connector-curvature="0"
           style="fill:#bfad7c" />
        <path
           class="fil11"
           d="M 12409,5674 C 12424,5674 12439,5675 12453,5677 12426,5713 12409,5758 12409,5806 12409,5922 12503,6017 12620,6017 12668,6017 12713,6000 12749,5973 12750,5987 12751,6002 12751,6017 12751,6206 12598,6359 12409,6359 12220,6359 12067,6206 12067,6017 12067,5828 12220,5674 12409,5674 Z"
           id="path66"
           inkscape:connector-curvature="0"
           style="fill:#4a422c;fill-rule:nonzero" />
        <path
           class="fil11"
           d="M 12827,6234 C 12920,6197 13184,6207 13259,6287 13106,6243 12972,6251 12853,6298 12732,6346 12625,6433 12526,6547 12564,6377 12733,6271 12827,6234 Z"
           id="path68"
           inkscape:connector-curvature="0"
           style="fill:#4a422c;fill-rule:nonzero" />
        <path
           class="fil11"
           d="M 12044,5766 C 12044,5719 12051,5657 12069,5590 12141,5328 12351,5170 12626,5165 12745,5163 12866,5193 12967,5254 13033,5293 13092,5346 13137,5412 13208,5518 13245,5651 13239,5796 13234,5932 13192,6079 13106,6225 L 13057,6219 C 13138,6079 13188,5923 13193,5794 13199,5659 13165,5536 13098,5438 13058,5378 13004,5329 12944,5293 12849,5237 12738,5209 12627,5211 12252,5218 12144,5458 12044,5766 Z"
           id="path70"
           inkscape:connector-curvature="0"
           style="fill:#4a422c;fill-rule:nonzero" />
        <path
           class="fil11"
           d="M 12708,4547 C 12708,4547 12387,4658 12098,4594 11809,4529 11762,4284 11876,4182 11990,4080 12319,4101 12480,4249 12642,4398 12708,4550 12708,4547 Z"
           id="path72"
           inkscape:connector-curvature="0"
           style="fill:#4a422c;fill-rule:nonzero" />
        <path
           class="fil11"
           d="M 5690,5114 C 5690,5114 5937,5199 6159,5150 6382,5100 6418,4912 6330,4833 6242,4754 5989,4770 5865,4885 5741,4999 5690,5116 5690,5114 Z"
           id="path74"
           inkscape:connector-curvature="0"
           style="fill:#4a422c;fill-rule:nonzero" />
        <path
           class="fil11"
           d="M 5652,6347 C 5707,6367 5822,6475 5824,6540 5773,6460 5710,6411 5638,6386 5565,6360 5483,6357 5395,6369 5478,6308 5595,6326 5652,6347 Z"
           id="path76"
           inkscape:connector-curvature="0"
           style="fill:#4a422c;fill-rule:nonzero" />
        <path
           class="fil11"
           d="M 5589,6366 C 5589,6365 5454,6131 5521,5801 5543,5694 5587,5615 5640,5562 5679,5523 5724,5499 5769,5489 5816,5480 5862,5485 5903,5505 5943,5525 5977,5558 6002,5605 6107,5802 6064,6009 6063,6010 6035,5842 6061,5813 5962,5627 5941,5589 5914,5562 5883,5547 5851,5531 5815,5527 5779,5534 5742,5542 5705,5562 5672,5595 5625,5642 5586,5713 5567,5810 5503,6124 5629,6343 5629,6344 L 5589,6366 Z"
           id="path78"
           inkscape:connector-curvature="0"
           style="fill:#4a422c;fill-rule:nonzero" />
        <path
           class="fil11"
           d="M 5824,5811 C 5934,5811 6023,5936 6023,6089 6023,6242 5934,6366 5824,6366 5714,6366 5625,6242 5625,6089 5625,6061 5628,6034 5633,6009 5647,6056 5678,6089 5713,6089 5762,6089 5802,6027 5802,5950 5802,5898 5783,5852 5756,5828 5777,5817 5800,5811 5824,5811 Z"
           id="path80"
           inkscape:connector-curvature="0"
           style="fill:#4a422c;fill-rule:nonzero" />
        <path
           class="fil11"
           d="M 7255,14069 C 6374,12662 5789,11222 5603,9740 5417,8256 5629,6730 6343,5151 6271,5446 6071,6012 6019,6170 5623,7387 5525,8572 5672,9731 5855,11190 6428,12608 7290,13996 7298,14008 7328,14057 7336,14069 L 7255,14069 Z"
           id="path82"
           inkscape:connector-curvature="0"
           style="fill:#4a422c;fill-rule:nonzero" />
        <path
           class="fil11"
           d="M 5361,8373 C 5241,7648 5222,6958 5291,6317 5420,5120 5859,4090 6542,3315 7225,2538 8151,2017 9254,1835 9737,1756 10254,1742 10800,1801 10429,1811 9803,1841 9624,1857 9502,1869 9383,1884 9265,1904 8179,2082 7266,2596 6594,3360 5921,4125 5487,5142 5360,6324 5291,6960 5311,7643 5429,8362 L 5361,8373 Z"
           id="path84"
           inkscape:connector-curvature="0"
           style="fill:#4a422c;fill-rule:nonzero" />
        <path
           class="fil11"
           d="M 10102,1786 C 10767,1223 11584,1165 12050,1984 12127,2002 12483,2093 12839,2296 13239,2525 13444,2734 13445,2734 L 13396,2783 C 13395,2782 13197,2581 12804,2356 12412,2132 12021,2049 12020,2048 L 12005,2045 11997,2031 C 11563,1231 10818,1270 10189,1803 L 10102,1786 Z"
           id="path86"
           inkscape:connector-curvature="0"
           style="fill:#4a422c;fill-rule:nonzero" />
        <path
           class="fil11"
           d="M 6133,11827 C 6130,11826 5255,11437 4842,10891 4542,10494 4599,9956 4794,9432 4986,8913 5337,8371 5582,8031 L 5613,8107 C 5371,8445 5048,8945 4859,9456 4671,9960 4614,10475 4897,10849 5299,11381 6159,11763 6161,11764 L 6133,11827 Z"
           id="path88"
           inkscape:connector-curvature="0"
           style="fill:#4a422c;fill-rule:nonzero" />
        <path
           class="fil11"
           d="M 4789,10700 C 4788,10704 4407,12133 4496,12527 4503,12556 4512,12582 4524,12607 4577,12713 4681,12776 4808,12804 4940,12833 5096,12825 5246,12791 5344,12769 5439,12735 5524,12693 5904,12505 6297,12215 6298,12214 L 6339,12270 C 6338,12271 5940,12565 5554,12755 5465,12799 5365,12835 5261,12858 5102,12894 4935,12903 4794,12871 4647,12839 4525,12765 4462,12637 4448,12608 4437,12577 4429,12543 4335,12131 4721,10686 4722,10682 L 4789,10700 Z"
           id="path90"
           inkscape:connector-curvature="0"
           style="fill:#4a422c;fill-rule:nonzero" />
        <path
           class="fil11"
           d="M 5914,13637 C 5801,13526 5688,13406 5577,13272 5465,13139 5355,12992 5245,12828 L 5303,12790 C 5411,12951 5520,13096 5630,13228 5740,13360 5851,13478 5963,13587 L 5914,13637 Z"
           id="path92"
           inkscape:connector-curvature="0"
           style="fill:#4a422c;fill-rule:nonzero" />
        <path
           class="fil11"
           d="M 4448,11987 C 4447,11985 4175,11120 4044,10617 3911,10109 3928,9926 3928,9926 L 3929,9912 3939,9903 C 3941,9902 4427,9386 4610,9218 4694,9212 4686,9214 4738,9210 4589,9400 4064,9881 3997,9944 3996,9992 4001,10179 4110,10600 4241,11099 4513,11964 4514,11967 L 4448,11987 Z M 4635,9285 4634,9273 C 4632,9277 4629,9281 4626,9285 4521,9290 3839,9285 3837,9285 L 3811,9285 3804,9260 C 3802,9253 3196,7140 4354,4440 5513,1739 6718,1215 6722,1213 L 6747,1201 6764,1224 6907,1423 6907,1113 6922,1102 C 7212,902 7376,930 7490,1095 7581,1227 7634,1450 7695,1713 7738,1897 7786,2100 7853,2302 L 7788,2324 C 7718,2116 7671,1913 7628,1729 7568,1473 7517,1256 7433,1134 7346,1008 7215,989 6976,1149 L 6976,1637 6914,1550 6725,1288 C 6549,1379 5469,2015 4418,4467 3341,6978 3801,8972 3864,9216 3995,9217 4572,9221 4629,9216 4658,9213 4656,9235 4634,9273 L 4635,9285 4626,9285 4635,9285 Z"
           id="path94"
           inkscape:connector-curvature="0"
           style="fill:#4a422c;fill-rule:nonzero" />
        <path
           class="fil11"
           d="M 7853,14422 C 7648,14214 7416,14094 7176,14069 6940,14044 6695,14112 6457,14277 6347,14354 6256,14487 6187,14651 6113,14829 6066,15043 6050,15262 6015,15738 6151,16143 6410,16446 6679,16761 7079,16966 7558,17028 7816,17061 8112,17044 8454,16949 8797,16853 9185,16679 9624,16396 11440,15223 11815,11221 11883,9068 11888,8911 11920,8165 11958,7667 11959,7688 12216,14807 9661,16454 9216,16741 8822,16918 8472,17015 8121,17113 7816,17130 7550,17096 7053,17033 6637,16819 6358,16491 6087,16174 5945,15752 5981,15257 5997,15031 6046,14809 6123,14624 6196,14449 6296,14306 6418,14221 6669,14045 6931,13974 7183,14000 7439,14026 7686,14153 7902,14374 8329,14808 8394,15796 8394,15799 8239,15276 8260,14836 7853,14422 Z"
           id="path96"
           inkscape:connector-curvature="0"
           style="fill:#4a422c;fill-rule:nonzero" />
        <path
           class="fil11"
           d="M 6858,14565 C 6859,14565 7497,14721 7580,15385 7598,15530 7589,15651 7560,15752 7524,15876 7458,15968 7376,16032 7294,16096 7197,16131 7099,16143 7010,16154 6920,16146 6840,16123 6972,16125 7118,16145 7333,15977 7404,15922 7462,15842 7493,15733 7520,15641 7528,15529 7511,15393 7423,14688 6875,14600 6858,14565 Z"
           id="path98"
           inkscape:connector-curvature="0"
           style="fill:#4a422c;fill-rule:nonzero" />
        <path
           class="fil11"
           d="M 7307,16064 C 7306,16064 7081,16113 6900,16006 6846,15973 6812,15932 6794,15885 6766,15812 6780,15726 6821,15639 6860,15554 6925,15467 7000,15389 7149,15234 7343,15110 7473,15097 L 7478,15143 C 7358,15155 7176,15273 7034,15421 6961,15496 6900,15578 6863,15658 6827,15735 6814,15809 6837,15869 6851,15906 6879,15939 6924,15966 7089,16064 7297,16019 7298,16019 L 7307,16064 Z"
           id="path100"
           inkscape:connector-curvature="0"
           style="fill:#4a422c;fill-rule:nonzero" />
        <path
           class="fil11"
           d="M 7360,15997 C 7359,15997 7199,16025 7120,15840 7072,15725 7151,15531 7253,15393 7286,15349 7321,15310 7355,15282 7389,15252 7423,15234 7453,15230 7480,15226 7504,15235 7521,15259 L 7506,15269 C 7493,15252 7476,15245 7455,15248 7429,15251 7399,15269 7367,15296 7334,15323 7300,15361 7268,15404 7169,15538 7091,15725 7137,15833 7210,16005 7356,15978 7356,15978 L 7360,15997 Z"
           id="path102"
           inkscape:connector-curvature="0"
           style="fill:#4a422c;fill-rule:nonzero" />
        <path
           class="fil11"
           d="M 7445,15904 C 7445,15904 7354,15923 7305,15826 7301,15818 7298,15810 7295,15800 7280,15747 7280,15663 7298,15584 7317,15505 7355,15431 7416,15400 7424,15396 7432,15393 7440,15390 7604,15342 7530,15537 7530,15537 L 7512,15531 C 7512,15530 7574,15371 7446,15408 7438,15410 7431,15413 7424,15416 7369,15444 7334,15514 7316,15588 7298,15664 7298,15745 7313,15795 7315,15803 7318,15811 7321,15817 7364,15902 7441,15886 7441,15886 L 7445,15904 Z"
           id="path104"
           inkscape:connector-curvature="0"
           style="fill:#4a422c;fill-rule:nonzero" />
        <path
           class="fil11"
           d="M 7875,14358 C 8187,14464 8448,14620 8650,14832 8845,15037 8985,15293 9062,15605 8841,15161 8805,15095 8600,14880 8406,14676 8155,14526 7853,14424 L 7875,14358 Z"
           id="path106"
           inkscape:connector-curvature="0"
           style="fill:#4a422c;fill-rule:nonzero" />
        <path
           class="fil11"
           d="M 7842,14359 C 8057,14353 8262,14380 8453,14444 8721,14533 8965,14693 9180,14933 8776,14645 8714,14603 8432,14509 8266,14454 8090,14427 7905,14428 L 7842,14359 Z"
           id="path108"
           inkscape:connector-curvature="0"
           style="fill:#4a422c;fill-rule:nonzero" />
        <path
           class="fil11"
           d="M 7589,14147 C 8038,13999 8486,13924 8932,13930 9362,13936 9788,14018 10208,14183 9491,14027 9382,14006 8929,13999 8501,13994 8070,14066 7636,14208 L 7589,14147 Z"
           id="path110"
           inkscape:connector-curvature="0"
           style="fill:#4a422c;fill-rule:nonzero" />
        <path
           class="fil11"
           d="M 7382,13266 C 7451,13031 8526,12945 9333,12980 9527,12988 9705,13003 9850,13025 9998,13046 10113,13075 10177,13110 10233,13141 10256,13179 10240,13225 10227,13076 9741,13045 9324,13027 9121,13018 8907,13038 8691,13044 8472,13049 7657,13062 7382,13266 Z"
           id="path112"
           inkscape:connector-curvature="0"
           style="fill:#4a422c;fill-rule:nonzero" />
        <path
           class="fil11"
           d="M 6582,11480 C 7201,11246 7834,11117 8478,11079 9121,11041 9776,11094 10440,11222 9039,11096 8727,11134 8482,11148 8241,11163 7250,11256 6582,11480 Z"
           id="path114"
           inkscape:connector-curvature="0"
           style="fill:#4a422c;fill-rule:nonzero" />
        <path
           class="fil11"
           d="M 6175,9863 C 6918,9629 7676,9501 8448,9462 9219,9424 10004,9477 10800,9605 9120,9479 8746,9517 8453,9531 8164,9546 6977,9639 6175,9863 Z"
           id="path116"
           inkscape:connector-curvature="0"
           style="fill:#4a422c;fill-rule:nonzero" />
        <path
           class="fil11"
           d="M 6062,7924 C 6698,7741 7339,7664 7984,7677 8629,7691 9278,7796 9929,7977 8542,7739 8228,7752 7983,7747 7742,7741 6747,7755 6062,7924 Z"
           id="path118"
           inkscape:connector-curvature="0"
           style="fill:#4a422c;fill-rule:nonzero" />
        <path
           class="fil11"
           d="M 6594,6072 C 6663,5841 7737,5813 8544,5891 8738,5910 8917,5935 9062,5964 9210,5994 9325,6029 9388,6068 9445,6102 9468,6141 9452,6186 9438,6037 8953,5979 8536,5938 8333,5918 8119,5927 7903,5921 7683,5914 6869,5882 6594,6072 Z"
           id="path120"
           inkscape:connector-curvature="0"
           style="fill:#4a422c;fill-rule:nonzero" />
        <path
           class="fil11"
           d="M 7589,4450 C 7938,4285 8283,4226 8626,4258 8968,4291 9308,4414 9645,4614 8920,4336 8752,4340 8621,4327 8493,4315 7963,4300 7589,4450 Z"
           id="path122"
           inkscape:connector-curvature="0"
           style="fill:#4a422c;fill-rule:nonzero" />
        <path
           class="fil11"
           d="M 11705,11918 C 11705,11918 11722,12019 11981,12048 12256,12078 12461,11973 12462,11973 L 12493,12034 C 12492,12035 12269,12149 11974,12116 11664,12082 11637,11932 11637,11932 L 11705,11918 Z"
           id="path124"
           inkscape:connector-curvature="0"
           style="fill:#4a422c;fill-rule:nonzero" />
        <path
           class="fil11"
           d="M 12833,7945 C 13295,8144 13658,8414 13917,8734 14187,9066 14344,9450 14385,9860 L 14316,9867 C 14277,9470 14124,9099 13863,8777 13639,8501 13061,8056 12833,7945 Z"
           id="path126"
           inkscape:connector-curvature="0"
           style="fill:#4a422c;fill-rule:nonzero" />
        <path
           class="fil11"
           d="M 12327,11769 C 12365,11847 12448,11941 12563,12040 12802,12245 13173,12468 13557,12603 13938,12738 14330,12787 14615,12648 14693,12610 14764,12557 14823,12488 14834,12476 14844,12463 14853,12450 15113,12100 15038,11484 14832,10898 14624,10308 14283,9749 14012,9515 13996,9502 13981,9489 13965,9478 L 14035,9461 C 14052,9473 14040,9448 14057,9463 14336,9703 14686,10274 14897,10875 15110,11481 15184,12119 14909,12491 14898,12506 14887,12520 14875,12533 14809,12610 14732,12668 14645,12711 14342,12858 13931,12809 13534,12669 13142,12530 12762,12302 12518,12092 12396,11987 12307,11885 12265,11800 L 12327,11769 Z"
           id="path128"
           inkscape:connector-curvature="0"
           style="fill:#4a422c;fill-rule:nonzero" />
        <path
           class="fil11"
           d="M 12460,10433 C 12605,10061 12850,9746 13161,9558 13346,9446 13847,9302 14167,9518 13819,9429 13465,9456 13196,9617 12899,9797 12664,10100 12525,10458 12191,11317 12355,11911 12350,11924 12042,11692 12405,10574 12460,10433 Z"
           id="path130"
           inkscape:connector-curvature="0"
           style="fill:#4a422c;fill-rule:nonzero" />
        <path
           class="fil11"
           d="M 12286,12095 C 12290,12098 13624,13114 14067,13828 14275,14162 14383,14375 14450,14505 14516,14636 14536,14675 14567,14675 14621,14675 14867,14582 15215,14401 15456,14276 15743,14109 16045,13901 16688,13460 16720,13450 16721,13450 L 16698,13448 16691,13426 16252,12030 16199,11864 16311,11998 C 16313,12000 16952,12765 17042,12765 17075,12765 17149,12682 17230,12573 18012,11523 18604,9163 18694,8034 18752,7309 18707,6691 18621,6195 18470,5321 18201,4832 18147,4799 18072,4754 17087,5088 17084,5089 L 16639,5239 17057,5025 C 17060,5024 17911,4590 17961,4359 17993,4212 17783,3466 17378,2736 17052,2146 15247,402 14634,709 14496,814 13594,2665 13238,3030 13242,3024 14527,685 14603,647 15267,315 17097,2085 17439,2702 17851,3446 18063,4217 18029,4374 17994,4533 17659,4759 17399,4914 17705,4819 18118,4701 18183,4740 18243,4776 18535,5287 18689,6183 18776,6684 18822,7308 18763,8039 18672,9179 18076,11553 17286,12614 17193,12740 17100,12835 17042,12835 16951,12835 16563,12398 16369,12173 L 16757,13406 16744,13410 C 16731,13459 16617,13593 16084,13959 15779,14168 15489,14337 15247,14463 14889,14649 14629,14744 14567,14744 14494,14744 14470,14696 14388,14537 14322,14408 14215,14198 14008,13865 13572,13162 12184,12107 12180,12104 L 12286,12095 Z"
           id="path132"
           inkscape:connector-curvature="0"
           style="fill:#4a422c;fill-rule:nonzero" />
        <path
           class="fil11"
           d="M 5891,13616 C 5892,13615 6178,13237 6313,13071 6444,12909 6553,12748 6554,12748 L 6611,12787 C 6610,12787 6500,12950 6366,13115 6235,13277 5947,13657 5946,13658 L 5891,13616 Z"
           id="path134"
           inkscape:connector-curvature="0"
           style="fill:#4a422c;fill-rule:nonzero" />
        <path
           class="fil11"
           d="M 5714,13366 C 5711,13372 4901,15367 5407,16287 5642,16713 6130,17021 6716,17214 7394,17436 8199,17505 8895,17428 10167,17286 10301,16777 10349,16593 L 10351,16587 C 10398,16407 10374,15684 10374,15682 L 10440,15643 C 10440,15645 10467,16415 10417,16604 L 10416,16610 C 10364,16806 10222,17349 8902,17497 8198,17575 7381,17505 6695,17279 6093,17082 5590,16764 5347,16320 4824,15371 5647,13347 5650,13341 L 5714,13366 Z"
           id="path136"
           inkscape:connector-curvature="0"
           style="fill:#4a422c;fill-rule:nonzero" />
        <path
           class="fil11"
           d="M 5991,16938 C 5991,16938 5991,16833 6036,16681 6081,16528 6227,16297 6228,16296 L 6286,16333 C 6286,16334 6145,16557 6102,16700 6060,16843 6060,16938 6060,16938 L 5991,16938 Z"
           id="path138"
           inkscape:connector-curvature="0"
           style="fill:#4a422c;fill-rule:nonzero" />
        <path
           class="fil11"
           d="M 7556,17439 C 7556,17439 7595,17321 7556,17192 7520,17071 7513,17072 7513,17072 L 7589,17056 C 7589,17057 7574,17013 7622,17172 7668,17322 7622,17460 7622,17460 L 7556,17439 Z"
           id="path140"
           inkscape:connector-curvature="0"
           style="fill:#4a422c;fill-rule:nonzero" />
        <path
           class="fil11"
           d="M 8881,17445 C 8881,17445 8895,17331 8839,17195 8782,17059 8673,16938 8672,16938 L 8718,16912 C 8718,16912 8840,17017 8903,17169 8966,17321 8949,17454 8949,17454 L 8881,17445 Z"
           id="path142"
           inkscape:connector-curvature="0"
           style="fill:#4a422c;fill-rule:nonzero" />
        <path
           class="fil11"
           d="M 5506,16569 C 5506,16569 5443,16444 5703,16126 5976,15792 6120,15976 6120,15977 L 6120,16075 C 6120,16075 5975,15902 5756,16170 5524,16454 5569,16539 5569,16540 L 5506,16569 Z"
           id="path144"
           inkscape:connector-curvature="0"
           style="fill:#4a422c;fill-rule:nonzero" />
        <path
           class="fil11"
           d="M 11478,14065 C 11479,14069 11605,15224 11451,15997 11446,16019 11443,16039 11439,16058 11381,16415 11436,16785 11639,17092 11844,17400 12199,17645 12742,17754 12776,17761 12809,17767 12841,17772 13503,17880 14395,17879 15172,17739 15815,17623 16377,17412 16659,17089 17010,16687 17153,16173 17142,15646 17137,15402 16889,14420 16650,13911 16985,14404 17199,15032 17211,15645 17222,16187 17074,16719 16711,17135 16418,17471 15841,17689 15184,17807 14400,17949 13499,17949 12830,17840 12794,17834 12760,17828 12729,17822 12165,17709 11796,17452 11582,17130 11368,16807 11310,16420 11371,16047 11375,16024 11379,16003 11383,15983 11453,15630 11458,14244 11478,14065 Z"
           id="path146"
           inkscape:connector-curvature="0"
           style="fill:#4a422c;fill-rule:nonzero" />
        <path
           class="fil11"
           d="M 12858,17809 C 12858,17808 12881,17376 13080,16913 13170,16701 13285,16553 13401,16459 13547,16340 13697,16306 13804,16338 13898,16366 14007,16494 14105,16666 14208,16845 14300,17073 14354,17284 14455,17687 14481,17865 14482,17865 L 14413,17875 C 14413,17875 14387,17701 14286,17300 14235,17096 14144,16874 14045,16700 13955,16543 13860,16427 13784,16404 13697,16378 13572,16409 13444,16513 13337,16601 13229,16740 13143,16940 12950,17391 12927,17812 12927,17813 L 12858,17809 Z"
           id="path148"
           inkscape:connector-curvature="0"
           style="fill:#4a422c;fill-rule:nonzero" />
        <path
           class="fil11"
           d="M 15793,17634 C 15793,17632 15625,17162 15303,16775 15158,16601 15019,16496 14894,16441 14750,16377 14626,16382 14535,16428 14363,16514 14205,16890 14205,16891 L 14141,16864 C 14142,16863 14309,16463 14504,16366 14612,16312 14757,16305 14922,16377 15055,16436 15203,16548 15356,16731 15686,17128 15858,17609 15858,17610 L 15793,17634 Z"
           id="path150"
           inkscape:connector-curvature="0"
           style="fill:#4a422c;fill-rule:nonzero" />
        <path
           class="fil11"
           d="M 11815,17370 C 11815,17369 11989,17068 12329,16615 12406,16512 12479,16441 12548,16395 12638,16334 12720,16314 12792,16317 12865,16321 12927,16350 12976,16387 13016,16417 13048,16452 13070,16485 13161,16618 13223,16742 13223,16742 L 13161,16773 C 13161,16773 13101,16653 13013,16524 12995,16497 12968,16467 12935,16442 12895,16412 12846,16389 12788,16386 12730,16383 12662,16401 12587,16452 12524,16494 12456,16560 12384,16657 12048,17105 11875,17403 11875,17404 L 11815,17370 Z"
           id="path152"
           inkscape:connector-curvature="0"
           style="fill:#4a422c;fill-rule:nonzero" />
        <path
           class="fil11"
           d="M 10656,15260 C 10657,15260 10706,15178 11009,15184 11305,15190 11499,15272 11500,15273 L 11473,15337 C 11473,15336 11290,15259 11008,15253 10733,15248 10649,15330 10649,15330 L 10656,15260 Z"
           id="path154"
           inkscape:connector-curvature="0"
           style="fill:#4a422c;fill-rule:nonzero" />
        <path
           class="fil11"
           d="M 17009,14811 C 17010,14810 17370,14711 18063,13888 18213,13710 18583,13263 18969,12662 18968,12663 18820,13097 18116,13933 17409,14771 17029,14877 17028,14877 L 17009,14811 Z"
           id="path156"
           inkscape:connector-curvature="0"
           style="fill:#4a422c;fill-rule:nonzero" />
        <path
           class="fil11"
           d="M 16893,16826 C 17106,16857 17549,16846 17955,16762 18244,16703 18512,16607 18662,16465 18940,16201 18980,15837 19024,15451 19036,15336 19050,15219 19069,15101 19121,14791 19207,14609 19502,13986 19703,13561 20003,12928 20457,11904 21092,10474 21491,8241 21032,6085 20688,4471 19863,2901 18296,1742 18192,1674 18085,1607 17978,1542 15726,186 13365,-88 11461,142 9560,371 8117,1100 7692,1751 7686,1760 7679,1771 7672,1783 L 7635,1733 C 7641,1723 7626,1725 7634,1713 8068,1048 9531,305 11452,73 13370,-158 15746,117 18013,1483 18120,1547 18227,1614 18335,1685 L 18337,1686 C 19920,2856 20752,4442 21099,6071 21562,8242 21160,10491 20520,11932 20067,12955 19767,13589 19565,14015 19273,14631 19188,14812 19137,15113 19118,15228 19105,15344 19092,15459 19048,15858 19006,16234 18710,16515 18550,16667 18269,16768 17969,16830 17555,16915 17102,16927 16883,16895 L 16893,16826 Z"
           id="path158"
           inkscape:connector-curvature="0"
           style="fill:#4a422c;fill-rule:nonzero" />
        <path
           class="fil11"
           d="M 17795,16823 C 17796,16822 17834,16533 17769,16246 17740,16117 17696,16025 17646,15963 17588,15892 17522,15861 17462,15861 17350,15860 17168,16013 17167,16013 L 17141,15983 C 17142,15982 17336,15819 17463,15820 17533,15821 17611,15856 17677,15938 17731,16004 17778,16101 17808,16237 17875,16532 17836,16827 17836,16828 L 17795,16823 Z"
           id="path160"
           inkscape:connector-curvature="0"
           style="fill:#4a422c;fill-rule:nonzero" />
        <path
           class="fil11"
           d="M 14394,6353 C 14810,6776 15030,7314 15044,7941 15058,8554 14874,9253 14481,10015 L 14420,9983 C 14807,9232 14988,8544 14975,7942 14981,7675 14807,6763 14394,6353 Z"
           id="path162"
           inkscape:connector-curvature="0"
           style="fill:#4a422c;fill-rule:nonzero" />
        <path
           class="fil12"
           d="M 7214,14004 C 6977,13620 6761,13234 6570,12845 6526,12907 6451,13010 6366,13115 6235,13277 5947,13657 5946,13658 L 5916,13635 5914,13637 C 5910,13632 5905,13627 5900,13622 L 5891,13616 C 5891,13616 5891,13615 5892,13615 5826,13550 5761,13482 5696,13410 5582,13708 4945,15446 5407,16287 5438,16343 5473,16396 5512,16448 5533,16377 5584,16272 5703,16126 5866,15926 5984,15912 6052,15933 5989,15728 5963,15501 5981,15257 5997,15031 6046,14809 6123,14624 6196,14449 6296,14306 6418,14221 6669,14045 6931,13974 7183,14000 7193,14001 7204,14002 7214,14004 Z"
           id="path164"
           inkscape:connector-curvature="0"
           style="fill:#80724a" />
        <path
           class="fil12"
           d="M 9661,16454 C 9325,16671 9017,16825 8736,16929 8773,16965 8855,17054 8903,17169 8947,17275 8952,17372 8951,17421 10171,17271 10302,16774 10349,16593 L 10351,16587 C 10388,16445 10381,15966 10376,15769 10166,16048 9929,16281 9661,16454 Z"
           id="path166"
           inkscape:connector-curvature="0"
           style="fill:#80724a" />
        <ellipse
           class="fil5"
           cx="7981"
           cy="13566"
           rx="349"
           ry="446"
           id="ellipse168"
           style="fill:#8c7e57" />
        <ellipse
           class="fil5"
           cx="7853"
           cy="12153"
           rx="349"
           ry="879"
           id="ellipse170"
           style="fill:#8c7e57" />
        <ellipse
           class="fil5"
           transform="matrix(0.99676,-0.13684,0.080118,1.6895,7700.8,10369)"
           rx="349"
           ry="448"
           id="ellipse172"
           cx="0"
           cy="0"
           style="fill:#8c7e57" />
        <ellipse
           class="fil5"
           transform="matrix(0.99676,-0.15862,0.080118,1.9585,7631.7,8642.9)"
           rx="349"
           ry="448"
           id="ellipse174"
           cx="0"
           cy="0"
           style="fill:#8c7e57" />
        <ellipse
           class="fil5"
           transform="matrix(0.99676,-0.15862,0.080118,1.9585,7650.3,6788.2)"
           rx="349"
           ry="448"
           id="ellipse176"
           cx="0"
           cy="0"
           style="fill:#8c7e57" />
        <ellipse
           class="fil5"
           transform="matrix(1.0794,-0.13561,-0.33922,1.6744,7867.4,5100.2)"
           rx="349"
           ry="448"
           id="ellipse178"
           cx="0"
           cy="0"
           style="fill:#8c7e57" />
        <path
           class="fil13"
           d="M 14012,9515 Z M 13196,9617 C 12899,9797 12664,10100 12525,10458 12289,11064 12301,11538 12327,11769 L 12327,11770 C 12365,11847 12448,11941 12563,12040 12802,12245 13173,12468 13557,12603 13938,12738 14330,12787 14615,12648 14693,12610 14764,12557 14823,12488 14834,12476 14844,12463 14853,12450 15113,12100 15038,11484 14832,10898 14624,10308 14283,9749 14012,9515 13997,9502 13982,9490 13968,9480 13687,9444 13414,9486 13196,9617 Z"
           id="path180"
           inkscape:connector-curvature="0"
           style="fill:#f0e4c8" />
        <path
           class="fil14"
           d="M 14720,12537 C 14720,12537 13962,12144 13342,11274 12767,10468 13123,9659 13514,9495 13400,9519 13293,9559 13196,9617 12899,9797 12664,10100 12525,10458 12289,11064 12301,11538 12327,11769 L 12327,11770 C 12365,11847 12448,11941 12563,12040 12802,12245 13173,12468 13557,12603 13938,12738 14330,12787 14615,12648 14655,12629 14693,12605 14729,12577 14723,12564 14720,12550 14720,12537 Z"
           id="path182"
           inkscape:connector-curvature="0"
           style="fill:#ded1b4" />
        <path
           class="fil13"
           d="M 6127,11824 C 6053,11791 5236,11412 4842,10891 4815,10855 4790,10817 4769,10779 4690,11085 4419,12188 4496,12527 4503,12556 4512,12582 4524,12607 4577,12713 4681,12776 4808,12804 4940,12833 5096,12825 5246,12791 5344,12769 5439,12735 5524,12693 5865,12525 6217,12273 6286,12223 6230,12091 6177,11958 6127,11824 Z"
           id="path184"
           inkscape:connector-curvature="0"
           style="fill:#f0e4c8" />
        <path
           class="fil14"
           d="M 6127,11824 C 6078,11802 5700,11627 5336,11359 L 5336,11480 C 5336,11480 5320,11987 4949,12343 4743,12540 4601,12586 4515,12587 4518,12594 4521,12600 4524,12607 4577,12713 4681,12776 4808,12804 4940,12833 5096,12825 5246,12791 5344,12769 5439,12735 5524,12693 5865,12525 6217,12273 6286,12223 6230,12091 6177,11958 6127,11824 Z"
           id="path186"
           inkscape:connector-curvature="0"
           style="fill:#ded1b4" />
        <path
           class="fil14"
           d="M 6094,16052 C 6042,16016 5920,15970 5756,16170 5592,16371 5566,16473 5565,16515 5682,16652 5827,16774 5995,16881 6000,16835 6011,16765 6036,16681 6076,16546 6194,16351 6222,16306 6172,16226 6129,16141 6094,16052 Z"
           id="path188"
           inkscape:connector-curvature="0"
           style="fill:#ded1b4" />
        <path
           class="fil13"
           d="M 6264,16370 C 6222,16439 6134,16592 6102,16700 6070,16808 6062,16888 6061,16921 6256,17038 6478,17135 6716,17214 6984,17302 7272,17366 7564,17406 7573,17362 7583,17280 7556,17192 7540,17139 7530,17109 7523,17093 7038,17025 6632,16813 6358,16491 6325,16452 6293,16412 6264,16370 Z"
           id="path190"
           inkscape:connector-curvature="0"
           style="fill:#f0e4c8" />
        <path
           class="fil14"
           d="M 8472,17015 C 8144,17107 7855,17128 7601,17102 7606,17119 7613,17142 7622,17172 7652,17270 7643,17362 7633,17415 8055,17468 8486,17472 8882,17429 8884,17393 8883,17300 8839,17195 8792,17083 8710,16982 8682,16949 8610,16974 8540,16996 8472,17015 Z"
           id="path192"
           inkscape:connector-curvature="0"
           style="fill:#ded1b4" />
        <path
           class="fil14"
           d="M 12384,16657 C 12110,17022 11945,17287 11893,17374 12099,17547 12378,17681 12742,17754 12776,17761 12809,17767 12841,17772 12848,17773 12854,17774 12861,17775 12871,17664 12914,17299 13080,16913 13103,16858 13128,16807 13155,16761 13137,16727 13084,16629 13013,16524 12995,16497 12968,16467 12935,16442 12895,16412 12846,16389 12788,16386 12730,16383 12662,16401 12587,16452 12524,16494 12456,16560 12384,16657 Z"
           id="path194"
           inkscape:connector-curvature="0"
           style="fill:#ded1b4" />
        <path
           class="fil13"
           d="M 13143,16940 C 12979,17323 12938,17685 12929,17786 13364,17848 13886,17866 14406,17832 14392,17758 14359,17587 14286,17300 14235,17096 14144,16874 14045,16700 13955,16543 13860,16427 13784,16404 13697,16378 13572,16409 13444,16513 13337,16601 13229,16740 13143,16940 Z"
           id="path196"
           inkscape:connector-curvature="0"
           style="fill:#f0e4c8" />
        <path
           class="fil14"
           d="M 14211,16876 C 14269,17008 14320,17149 14354,17284 14428,17580 14462,17755 14475,17827 14711,17809 14946,17780 15172,17739 15385,17701 15589,17652 15777,17592 15729,17469 15568,17094 15303,16775 15158,16601 15019,16496 14894,16441 14750,16377 14626,16382 14535,16428 14383,16504 14242,16806 14211,16876 Z"
           id="path198"
           inkscape:connector-curvature="0"
           style="fill:#ded1b4" />
        <path
           class="fil15"
           d="M 17196,15991 C 17163,16287 17077,16573 16928,16831 17122,16853 17461,16845 17799,16791 17807,16708 17821,16476 17769,16246 17740,16117 17696,16025 17646,15963 17588,15892 17522,15861 17462,15861 17377,15860 17251,15948 17196,15991 Z"
           id="path200"
           inkscape:connector-curvature="0"
           style="fill:#d4c6a7" />
      </g>
    </g>
    <g
       transform="matrix(0.32689,0,0,0.32689,144.73097,-54.034788)"
       id="g4217"
       inkscape:export-filename="/home/becky/Documents/GameJams/AdventitiousAsylum/assets/items/weapons/tugboat.png"
       inkscape:export-xdpi="93.449402"
       inkscape:export-ydpi="93.449402">
      <rect
         x="288.90628"
         y="278.09683"
         width="220.6122"
         height="127.72556"
         ry="6.69419"
         id="rect10"
         style="stroke:#ffffff;stroke-width:2.77647424;stroke-linecap:round;stroke-linejoin:round" />
      <path
         d="M 792.86,526.95 261.43,528.38 132.86,381.24 851.43,378.38 792.86,526.95"
         id="path12"
         inkscape:connector-curvature="0"
         style="stroke:#000000;stroke-width:1px" />
      <rect
         x="107.14"
         y="370.87003"
         width="772.85999"
         height="13.63"
         ry="6.6634998"
         id="rect14"
         style="stroke:#ffffff;stroke-width:1.84179997;stroke-linecap:round;stroke-linejoin:round" />
      <rect
         x="280.14896"
         y="272.68204"
         width="236.47231"
         height="13.692776"
         ry="6.69419"
         id="rect16"
         style="stroke:#ffffff;stroke-width:1.02111781;stroke-linecap:round;stroke-linejoin:round" />
      <rect
         x="329.62302"
         y="303.41928"
         width="22.241812"
         height="23.451519"
         rx="3.5873427"
         ry="4.9928718"
         id="rect24"
         style="fill:#ffffff;stroke:#ffffff;stroke-width:1.91420603;stroke-linecap:round;stroke-linejoin:round" />
      <rect
         x="511.76001"
         y="404.69003"
         width="40.488998"
         height="25.937"
         rx="6.5303998"
         ry="12.969"
         id="rect26"
         style="fill:#ffffff;stroke:#ffffff;stroke-width:2.71620011;stroke-linecap:round;stroke-linejoin:round" />
      <rect
         x="576.90002"
         y="405.12003"
         width="40.488998"
         height="25.937"
         rx="6.5303998"
         ry="12.969"
         id="rect28"
         style="fill:#ffffff;stroke:#ffffff;stroke-width:2.71620011;stroke-linecap:round;stroke-linejoin:round" />
      <rect
         x="644.90002"
         y="405.12003"
         width="40.488998"
         height="25.937"
         rx="6.5303998"
         ry="12.969"
         id="rect30"
         style="fill:#ffffff;stroke:#ffffff;stroke-width:2.71620011;stroke-linecap:round;stroke-linejoin:round" />
      <rect
         x="444.89999"
         y="405.12003"
         width="40.488998"
         height="25.937"
         rx="6.5303998"
         ry="12.969"
         id="rect32"
         style="fill:#ffffff;stroke:#ffffff;stroke-width:2.71620011;stroke-linecap:round;stroke-linejoin:round" />
      <rect
         style="fill:#ffffff;stroke:#ffffff;stroke-width:2.84697485;stroke-linecap:round;stroke-linejoin:round"
         id="rect4213"
         ry="7.4258361"
         rx="5.3354101"
         height="34.879154"
         width="33.079971"
         y="303.88565"
         x="372.46793" />
      <rect
         x="424.5582"
         y="303.88565"
         width="33.079971"
         height="34.879154"
         rx="5.3354101"
         ry="7.4258361"
         id="rect4215"
         style="fill:#ffffff;stroke:#ffffff;stroke-width:2.84697485;stroke-linecap:round;stroke-linejoin:round" />
    </g>
    <g
       id="g21885"
       transform="matrix(0.39958069,0,0,0.39958069,10.0379,-22.858407)"
       inkscape:export-filename="/home/becky/Documents/GameJams/AdventitiousAsylum/assets/items/weapons/sheep-with-staple-gun.png"
       inkscape:export-xdpi="90"
       inkscape:export-ydpi="90">
      <path
         id="path4"
         d="M 268.8487,418.95145 C 288.2407,482.36045 252.5467,549.48145 189.1317,568.85145 125.7167,588.22145 58.601698,552.51045 39.251697,489.08945 19.859698,425.68045 55.553698,358.55945 118.9687,339.18945 182.3837,319.81945 249.4987,355.53045 268.8487,418.95145 Z"
         style="fill:#ffffff;stroke:#000000;stroke-width:4;stroke-linecap:round;stroke-linejoin:round"
         inkscape:connector-curvature="0" />
      <path
         id="path6"
         d="M 136.9187,397.44945 C 84.341698,414.68445 72.097698,456.30045 85.089698,498.82945 90.889698,517.81445 106.5667,532.08045 124.4147,541.44945 91.443698,537.99785 61.055698,520.92645 40.985697,494.36445 62.372698,554.41845 127.5267,587.64945 189.1157,568.83445 252.4847,549.47545 288.1987,482.33945 268.8397,418.97445 264.6126,405.13845 258.1187,392.61645 249.8717,381.70245 250.49055,383.44025 251.1019,385.19445 251.6463,386.97655 261.1529,418.09455 257.3583,450.12455 243.5513,476.95555 244.6659,468.26265 244.22333,459.47555 241.6365,451.00755 228.4375,407.80455 194.1865,379.95855 139.4565,396.67755 138.60156,396.93874 137.7507,397.18006 136.9162,397.45364 Z"
         style="fill-opacity:0.3137"
         inkscape:connector-curvature="0" />
      <g
         id="g8"
         transform="matrix(0.96114,0.27607,-0.27607,0.96114,125.4607,333.05585)"
         style="stroke:#000000;stroke-width:4;stroke-linejoin:round">
        <path
           id="path10"
           d="M 121.31,227.75 C 123.9661,236.4441 110.026,241.007 92.744,246.286 75.462,251.565 61.64,256.514 58.696,246.87834 53.5199,229.93534 63.3444,211.89934 80.626,206.62034 97.9076,201.34134 116.134,210.80674 121.31,227.74934 Z"
           inkscape:connector-curvature="0"
           style="fill:#333333;stroke-linecap:round" />
        <path
           id="path12-5"
           d="M 80.53,249.39 C 75.7478,233.737 81.8358,221.345 81.8358,221.345 81.8358,221.345 82.26993,235.694 86.5506,247.551 L 80.5301,249.3903 Z"
           inkscape:connector-curvature="0"
           style="fill-opacity:0.3137;fill-rule:evenodd" />
      </g>
      <g
         id="g14"
         transform="matrix(0.25358,0,0,0.25358,222.6387,506.71045)">
        <path
           id="path16"
           d="M 346.836,67.417 329.488,48.549 C 326.487,45.285 314.108,47.456 309.832,47.784 303.385,48.278 296.232,48.607 289.918,49.927 281.521,51.683 276.369,58.453 269.913,64.255 263.258,70.236 259.822,71.791 259.072,80.773 258.442,88.316 259.234,95.808 259.388,103.35 259.688,118.019 259.326,131.509 252.393,144.689 231.56,129.287 217.524,107.699 198.912,90.018 180.076,72.123 155.028,60.977 132.746,47.833 121.554,41.23 110.684,34.248 100.183,26.585 94.429,22.387 88.774,18.175 83.229,13.707 79.751,10.904 70.9,0.191 67.327,0.004 62.914,-0.227 56.095,9.837 54.287,13.041 51.071,18.743 49.517,25.079 49.517,31.644 49.517,44.857 60.603,52.436 70.236,60.587 93.791,80.52 120.192,96.639 144.135,116.061 156.887,126.405 167.428,137.879 177.535,150.764 186.937,162.749 190.548,177.412 194.52,191.751 L 107.019,192.862 55.547,193.515 C 45.221,193.647 40.357,195.532 30.955,200.594 25.477,203.543 19.73,205.994 14.419,209.262 6.757,213.978 3.891,215.215 2.454,224.185 0.37,237.197 -0.442,250.75 0.227,263.934 1.504,289.078 7.163,316.379 18.909,338.8 23.252,347.089 27.703,354.752 32.892,362.535 35.579,366.565 47.974,364.782 52.391,364.996 L 87.302,366.691 C 96.343,367.129 98.281,368.882 103.573,361.555 93.153,361.032 82.534,360.282 72.103,360.282 64.78,360.282 45.962,362.621 40.612,357.74 46.83,352.906 66.289,357.678 73.682,358.055 79.506,358.353 104.267,363.661 107.073,356.786 94.802,355.718 82.474,355.36 70.184,354.558 64.443,354.183 58.734,353.424 52.984,353.173 48.625,352.984 37.484,354.106 33.936,351.694 30.427,349.309 27.396,338.108 25.508,333.885 22.762,327.746 20.484,321.513 18.353,315.126 14.176,302.604 11.579,290.064 9.411,277.063 7.377,264.864 8.036,252.093 9.424,239.874 10.162,233.384 11.676,227.206 13.157,220.836 13.427,219.676 19.087,220.286 20.138,220.272 L 127.235,218.781 C 157.816,218.355 186.927,220.385 214.108,203.514 243.982,184.971 260.019,158.344 266.066,124.017 279.03,172.676 290.281,221.647 301.998,270.607 290.034,272.084 274.614,265.004 263.803,272.221 256.303,277.228 258.768,277.681 259.865,285.394 260.556,290.252 261.261,296.813 264.793,300.499 265.702,298.991 270.546,293.775 271.702,297.409 274.842,307.281 279.47,315.199 285.779,323.394 296.14,336.851 306.209,349.153 313.444,364.097 280.473,362.751 244.729,362.764 210.699,361.217 192.247,360.378 173.788,359.841 155.337,359.004 147.42,358.645 107.691,352.675 104.846,359.642 178.199,363.034 251.576,366.064 324.895,370.137 319.99,373.032 307.104,370.515 300.324,370.418 290.109,370.272 279.926,370.104 269.721,369.659 250.92,368.842 232.119,368.029 213.318,367.223 193.013,366.353 172.731,365.204 152.441,364.028 143.577,363.513 134.7,363.266 125.832,362.823 120.574,362.56 115.319,362.222 110.062,361.923 103.269,361.534 103.493,361.662 99.439,367.277 L 288.083,376.019 322.304,377.605 C 325.032,377.731 325.509,378.045 327.66,376.286 333.303,371.671 334.625,372.047 341.875,372.047 L 392.444,372.047 C 395.315,372.047 414.453,350.395 413.869,347.944 L 379.377,203.074 C 371.97,171.961 364.562,140.848 357.153,109.735 353.912,96.112 352.123,80.348 346.836,67.417 M 202.788,205.105 C 142.843,221.453 81.033,215.114 19.629,216.235 25.814,211.589 32.406,208.167 39.342,204.786 47.748,200.688 51.902,200.506 61.451,200.951 77.423,201.694 93.387,200.972 109.359,200.972 126.088,200.972 142.815,200.191 159.543,199.858 L 184.025,199.382 C 189.407,199.28 204.949,195.539 202.788,205.105 M 266.069,294.459 C 265.862,293.585 259.933,273.014 265.432,277.13 269.347,280.062 271.363,293.353 266.069,294.459 M 312.493,351.06 C 294.102,327.274 273.642,306.855 271.472,275.38 L 293.283,275.38 C 302.827,275.38 302.662,274.211 305.014,283.625 308.05,295.771 311.481,307.806 314.719,319.897 317.927,331.876 321.071,344.542 322.763,356.833 323.144,359.594 325.362,364.942 322.349,365.849 320.057,366.537 317.791,366.455 316.468,364.259 313.955,360.085 316.839,354.43 312.493,351.06"
           inkscape:connector-curvature="0"
           style="fill:#352020" />
        <path
           id="path18"
           d="M 312.177,361.236 C 305.32,345.24 293.023,333.05 282.691,319.276 278.378,313.529 272.044,288.488 264.795,300.502 261.264,296.815 260.559,290.255 259.867,285.397 258.77,277.684 256.305,277.231 263.805,272.224 274.617,265.007 290.036,272.086 302,270.61 290.283,221.65 279.032,172.678 266.068,124.02 261.366,150.715 251.045,171.798 231.828,191.012 217.717,205.121 190.923,217.896 170.787,218.177 L 71.012,219.567 22.48,220.243 13.473,220.368 C 12.387,220.384 10.149,233.512 9.888,235.808 5.263,276.507 15.302,313.402 33.043,349.859 35.294,354.485 51.307,352.919 56.321,353.355 65.814,354.18 75.309,354.898 84.815,355.515 90.784,355.903 105.379,359.147 108.834,354.339 L 129.013,326.259 C 102.961,325.211 76.089,329.896 58.193,307.121 50.524,297.359 46.02,287.285 46.02,274.698 46.02,269.246 47.595,262.572 50.47,257.891 54.978,250.554 61.944,252.804 69.74,252.804 L 150.859,252.804 C 163.419,252.804 175.994,252.631 188.552,252.872 201.5,253.122 216.054,251.41 227.909,257.254 244.137,265.253 255.873,283.427 251.758,301.773 248.588,315.903 231.981,329.121 217.062,329.121 193.658,329.121 170.182,327.642 146.793,326.855 141.126,326.666 130.856,323.694 127.253,328.708 L 107.074,356.788 C 175.642,359.95 245.945,361.347 313.445,364.101 312.568,363.05 312.688,362.013 312.177,361.236 M 23.442,248.034 C 14.056,250.903 8.221,234.149 18.039,231.815 28.839,229.247 29.617,242.949 23.442,248.034 M 48.248,339.614 C 47.162,348.952 34.977,351.353 32.349,341.52 31.336,337.73 33.724,330.66 38.708,330.074 43.316,329.532 47.264,336.039 48.248,339.614 M 242.853,207.966 C 240.026,205.063 237.806,195.872 244.764,197.156 L 242.853,207.966 M 252.394,210.828 C 244.349,217.56 249.289,204.149 250.487,200.336 252.946,203.334 254.232,207.244 252.394,210.828 M 251.759,197.156 254.303,200.336 251.759,197.156"
           inkscape:connector-curvature="0"
           style="fill:#8c8c8c" />
        <path
           id="path20"
           d="M 242.85,207.97 244.761,197.16 C 237.803,195.876 240.022,205.067 242.85,207.97"
           inkscape:connector-curvature="0"
           style="fill:#d1c5be" />
        <path
           id="path22"
           d="M 47.928,200.336 C 38.389,205.639 28.407,209.642 19.629,216.235 54.796,215.592 89.939,216.91 125.105,216.317 141.728,216.037 158.631,214.554 175.003,211.681 184.335,210.043 193.231,207.711 202.38,205.216 210.024,203.131 218.299,195.354 225.046,191.112 210.141,196.015 199.163,199.091 183.563,199.39 167.857,199.692 152.152,200.003 136.448,200.326 106.886,200.933 77.49,201.498 47.928,200.336"
           inkscape:connector-curvature="0"
           style="fill:#b2b2b2;fill-rule:evenodd" />
        <path
           id="path24"
           d="M 246.67,211.47 C 252.63,216.771 254.029,204.657 250.486,200.34 249.351,203.953 248.302,208.442 246.67,211.47"
           inkscape:connector-curvature="0"
           style="fill:#d1c5be;fill-rule:evenodd" />
        <path
           id="path26"
           d="M 17.719,231.815 C 14.302,235.06 12.504,236.254 13.427,240.879 14.249,244.997 19.196,250.857 23.92,247.715 32.132,242.256 26.858,231.454 17.719,231.815 M 22.808,246.124 C 14.995,246.919 14.96,241.035 16.765,235.314 21.622,236.754 27.834,240.794 22.808,246.124"
           inkscape:connector-curvature="0"
           style="fill:#352020" />
        <path
           id="path28-4"
           d="M 16.449,235.31 C 15.407,239.268 13.674,242.655 17.719,245.167 19.921,246.534 22.646,246.617 24.079,244.53 27.573,239.443 20.038,236.158 16.449,235.31"
           inkscape:connector-curvature="0"
           style="fill:#d1c5be" />
        <path
           id="path30"
           d="M 246.67,313.538 C 265.253,292.866 243,264.286 223.886,255.379 213.485,250.531 196.275,252.912 184.982,252.804 171.47,252.675 157.95,252.804 144.437,252.804 L 63.192,252.804 C 55.526,252.804 52.906,253.019 49.293,260.247 46.592,265.65 45.516,272.737 46.179,278.72 47.523,290.848 52.084,301.162 60.807,309.882 65.552,314.624 71.128,319.753 77.342,322.472 84.251,325.495 91.752,324.759 99.26,325.061 L 128.369,326.232 C 131.691,326.366 139.886,310.882 142.054,307.816 118.9,307.114 86.556,313.208 69.293,293.484 62.805,286.071 58.408,275.781 61.284,265.683 63.618,257.489 82.92,260.118 89.951,260.118 118.718,260.118 147.784,259.713 176.683,260.03 199.409,260.279 222.48,256.484 239.063,275.169 245.46,282.378 250.896,300.951 242.22,308.771 235.407,314.912 216.062,310.244 207.764,309.971 L 151.196,308.117 C 149.871,308.073 142.7,306.903 141.864,308.086 L 129.014,326.26 205.69,328.835 C 222.375,329.394 235.146,324.841 246.67,313.538 M 78.772,310.042 70.506,305.271 78.772,310.042 M 53.017,261.071 C 50.35,272.507 52.988,283.789 58.74,293.822 51.171,284.337 49.583,272.515 53.017,261.071 M 147.457,324.352 C 149.843,321.129 152.614,316.304 156.997,315.766 153.993,318.854 152.539,324.668 147.457,324.352"
           inkscape:connector-curvature="0"
           style="fill:#352020" />
        <path
           id="path32"
           d="M 52.697,261.07 C 50.518,273.02 50.814,283.887 58.74,293.821 52.407,282.774 52.263,272.787 52.697,261.07"
           inkscape:connector-curvature="0"
           style="fill:#8c8c8c;fill-rule:evenodd" />
        <path
           id="path34"
           d="M 271.473,275.38 C 272.854,295.416 280.787,310.856 292.938,326.577 299.193,334.67 305.835,342.448 312.093,350.542 315.586,355.061 314.046,368.345 322.35,365.849 327.821,364.203 312.8,313.489 311.064,306.544 308.515,296.352 305.668,286.236 303.12,276.039 302.513,273.612 275.427,275.38 271.473,275.38 M 289.918,299.229 C 281.728,299.417 274.929,284.284 284.669,284.284 292.459,284.284 299.423,298.602 289.918,299.229"
           inkscape:connector-curvature="0"
           style="fill:#8c8c8c" />
        <path
           id="path36"
           d="M 264.48,276.65 C 258.856,281.713 264.735,288.83 266.071,294.456 271.714,293.276 269.166,278.915 264.48,276.65"
           inkscape:connector-curvature="0"
           style="fill:#8c8c8c;fill-rule:evenodd" />
        <path
           id="path38-3"
           d="M 280.058,292.553 C 282.459,297.07 289.81,302.721 293.734,296.845 299.716,287.885 277.396,276.686 280.058,292.553 M 289.918,296.685 C 285.441,297.34 283.844,292.902 281.969,289.69 283.944,289.408 287.423,286.648 289.12,287.782 291.832,289.593 293.034,295.01 289.918,296.685"
           inkscape:connector-curvature="0"
           style="fill:#352020" />
        <path
           id="path40-6"
           d="M 291.19,290.96 C 289.977,284.873 285.491,289.185 281.971,289.688 283.16,291.726 284.778,296.073 287.373,296.683 291.862,297.738 292.4,293.43 291.19,290.96"
           inkscape:connector-curvature="0"
           style="fill:#d1c5be;fill-rule:evenodd" />
        <path
           id="path42-4"
           d="M 147.457,324.352 C 152.539,324.668 153.993,318.855 156.997,315.766 152.614,316.304 149.843,321.129 147.457,324.352"
           inkscape:connector-curvature="0"
           style="fill:#8c8c8c;fill-rule:evenodd" />
        <path
           id="path44-3"
           d="M 38.388,329.757 C 34.702,333.618 30.762,335.531 32.348,341.521 33.43,345.604 37.318,349.378 41.888,348.201 53.606,345.182 45.665,332.159 38.388,329.757 M 40.615,346.291 C 34.588,345.505 31.205,334.507 38.071,335.16 43.095,335.638 44.134,343.894 40.615,346.291"
           inkscape:connector-curvature="0"
           style="fill:#352020" />
        <path
           id="path46-1"
           d="M 42.521,338.66 C 37.123,332.209 30.932,337.964 35.844,343.746 40.983,349.795 42.687,343.153 42.521,338.66"
           inkscape:connector-curvature="0"
           style="fill:#d1c5be;fill-rule:evenodd" />
        <path
           id="path48-9"
           d="M 42.521,356.467 40.615,357.74 C 46.256,362.886 65.379,360.047 73.05,360.282 79.273,360.472 101.609,364.693 104.848,359.645 L 42.521,356.467"
           inkscape:connector-curvature="0"
           style="fill:#8c8c8c;fill-rule:evenodd" />
        <path
           id="path50-1"
           d="M 324.577,370.141 C 290.162,368.211 255.739,366.623 221.306,365.031 L 142.25,361.376 C 136.417,361.106 106.734,355.758 103.575,361.557 140.657,363.675 177.769,365.708 214.877,367.295 233.938,368.11 252.997,368.938 272.058,369.766 281.945,370.197 291.825,370.301 301.72,370.443 306.896,370.516 322.596,372.54 324.577,370.141"
           inkscape:connector-curvature="0"
           style="fill:#8c8c8c;fill-rule:evenodd" />
        <path
           id="path52-0"
           d="M 68.28,11.134 C 108.278,46.023 158.812,66.644 197.911,102.277 208.091,111.554 217.672,121.319 226.295,132.097 229.458,136.051 233.525,139.49 237.107,143.074 239.244,145.213 249.097,151.605 249.532,154.227 250.021,157.179 245.032,160.684 243.173,162.177 237.571,166.673 236.954,164.754 231.201,160.065 221.499,152.155 212.846,142.655 204.34,133.493 192.712,120.969 180.844,108.411 167.018,98.273 152.707,87.779 136.767,79.352 121.702,69.961 105.677,59.972 90.246,49.549 75.133,38.214 71.093,35.184 58.031,26.389 58.104,21.307 58.166,16.976 64.375,11.629 68.28,11.134"
           inkscape:connector-curvature="0"
           style="fill:#b2b2b2" />
        <path
           id="path54-9"
           d="M 207.241,114.479 239.218,148.352 C 244.667,154.125 247.044,157.151 239.517,162.175 231.954,167.224 190.881,114.978 184.332,108.168 166.029,89.137 139.421,77.347 116.841,64.235 109.865,60.184 55.091,27.202 63.509,18.765 67.825,14.439 69.277,18.134 74.138,21.863 80.535,26.771 87.117,31.379 93.71,36.025 106.405,44.972 119.946,52.853 133.206,60.925 157.835,75.919 188.759,93.112 207.241,114.479"
           inkscape:connector-curvature="0"
           style="fill:#3f3f3f" />
        <path
           id="path56-4"
           d="M 199.92,134.2 C 206.1,143.548 213.973,151.006 222.18,158.524 224.519,160.666 234.952,167.277 235.218,170.448 235.561,174.536 226.453,180.898 223.453,182.532 220.737,184.011 210.189,188.958 207.553,187.622 204.144,185.894 200.69,171.354 199.092,167.566 193.885,155.225 183.11,144.451 174.42,134.576 156.787,114.539 132.384,99.292 110.989,83.623 101.021,76.323 91.327,68.639 82.243,60.266 75.626,54.168 55.233,39.104 57.784,29.58 80.604,48.687 105.182,64.196 130.305,80.036 143.618,88.43 156.669,96.973 169.229,106.464 180.049,114.643 189.765,126.947 199.92,134.2"
           inkscape:connector-curvature="0"
           style="fill:#8c8c8c" />
        <path
           id="path58-5"
           d="M 331.26,55.333 C 317.159,76.478 292.371,67.971 270.843,72.504 L 285.525,58.345 C 289.964,54.063 294.87,55.079 300.851,54.226 310.058,52.915 323.801,50.06 331.26,55.333"
           inkscape:connector-curvature="0"
           style="fill:#b2b2b2" />
        <path
           id="path60-6"
           d="M 336.025,60.739 C 333.921,59.744 331.229,60.728 329.665,62.966 L 333.478,58.195 C 334.409,58.895 335.942,60.561 336.025,60.739"
           inkscape:connector-curvature="0"
           style="fill:#8c8c8c" />
        <path
           id="path62-2"
           d="M 327.76,83.953 323.311,72.505 C 324.735,75.551 326.019,80.205 329.988,78.229 334.089,76.187 340.397,69.388 338.254,64.874 342.993,68.819 330.909,80.917 327.76,83.953"
           inkscape:connector-curvature="0"
           style="fill:#8c8c8c" />
        <path
           id="path64-5"
           d="M 322.986,85.861 264.795,90.63 C 264.795,87.961 263.256,79.243 264.795,77.274 265.912,75.844 273.974,75.81 275.767,75.585 283.179,74.658 290.618,74.329 298.025,73.459 302.761,72.903 314.983,69.781 317.741,73.459 320.096,76.6 322.198,82.785 322.986,85.861"
           inkscape:connector-curvature="0"
           style="fill:#8c8c8c" />
        <path
           id="path66-9"
           d="M 406.94,345.02 392.631,362.51 C 376.732,306.879 363.838,250.55 350.27,194.31 343.31,165.458 336.35,136.607 329.391,107.755 327.342,99.266 323.198,95.962 329.289,87.264 331.74,83.764 341.216,67.556 343.056,75.323 L 406.94,345.023"
           inkscape:connector-curvature="0"
           style="fill:#8c8c8c" />
        <path
           id="path68-1"
           d="M 399.3,320.22 C 400.362,328.637 406.927,342.351 400.23,349.897 391.947,359.23 390.093,347.209 388.407,340.199 L 363.529,236.789 C 357.04,209.814 350.55,182.839 344.06,155.863 341.001,143.149 337.689,130.491 334.502,117.809 332.147,108.435 324.565,94.777 331.568,86.497 333.934,83.7 337.072,81.715 340.155,79.818 L 369.887,200.178 C 376.7,227.76 383.514,255.342 390.327,282.924 392.942,293.507 399.804,310.591 399.3,320.221"
           inkscape:connector-curvature="0"
           style="fill:#3f3f3f" />
        <path
           id="path70-7"
           d="M 386.584,364.101 340.183,361.804 C 330.59,361.329 329.249,363.438 327.144,354.86 L 305.761,267.753 277.054,150.812 267.106,110.288 C 265.881,105.297 261.444,97.889 266.863,95.559 276.604,91.372 290.592,92.339 301.049,91.267 307.829,90.571 319.211,86.881 321.101,94.618 L 340.699,174.878 386.656,363.081 C 386.8,363.679 386.584,364.088 386.584,364.101"
           inkscape:connector-curvature="0"
           style="fill:#b2b2b2" />
        <path
           id="path72-7"
           d="M 319.17,100.17 C 322.759,109.905 305.65,112.372 304.227,101.761 302.762,90.846 315.562,93.417 319.17,100.17"
           inkscape:connector-curvature="0"
           style="fill:#352020" />
        <path
           id="path74-4"
           d="M 315.037,101.761 C 318.108,109.68 307.308,108.935 305.817,102.397 303.888,93.935 313.669,97.159 315.037,101.761"
           inkscape:connector-curvature="0"
           style="fill:#d1c5be" />
        <path
           id="path76-1"
           d="M 257.16,201.93 C 260.743,215.697 241.602,217.749 238.08,205.11 236.994,201.215 240.193,193.515 244.761,192.391 249.672,191.182 255.824,197.991 257.16,201.93"
           inkscape:connector-curvature="0"
           style="fill:#352020" />
        <path
           id="path78-1"
           d="M 92.129,314.81 86.406,320.533 C 88.313,318.625 90.221,316.717 92.129,314.81"
           inkscape:connector-curvature="0"
           style="fill:#8c8c8c" />
        <path
           id="path80-9"
           d="M 92.129,321.17 90.219,321.17 97.852,314.812 C 96.836,317.38 94.338,319.365 92.129,321.17"
           inkscape:connector-curvature="0"
           style="fill:#8c8c8c" />
        <path
           id="path82-1"
           d="M 103.58,314.81 96.903,322.441 C 98.981,320.174 102.5,316.668 103.58,314.81"
           inkscape:connector-curvature="0"
           style="fill:#8c8c8c" />
        <path
           id="path84-3"
           d="M 109.3,314.81 101.67,322.441 109.3,314.81"
           inkscape:connector-curvature="0"
           style="fill:#8c8c8c" />
        <path
           id="path86-8"
           d="M 116.62,314.81 C 113.848,317.495 111.457,321.654 107.397,322.441 109.032,318.415 113.832,315.986 116.62,314.81"
           inkscape:connector-curvature="0"
           style="fill:#8c8c8c" />
        <path
           id="path88-7"
           d="M 122.66,314.81 C 121.928,318.405 119.033,322.729 115.03,323.078 115.82,319.162 120.285,316.242 122.66,314.81"
           inkscape:connector-curvature="0"
           style="fill:#8c8c8c" />
        <path
           id="path90-4"
           d="M 121.38,323.08 C 123.583,320.547 125.925,315.994 129.33,315.767 126.77,318.219 124.153,321.086 121.38,323.08"
           inkscape:connector-curvature="0"
           style="fill:#8c8c8c" />
        <path
           id="path92-9"
           d="M 127.42,323.08 134.099,315.767 C 131.983,318.233 129.833,321.137 127.42,323.08"
           inkscape:connector-curvature="0"
           style="fill:#8c8c8c" />
        <path
           id="path94-3"
           d="M 139.83,315.45 C 137.892,318.188 134.135,322.556 131.244,323.082 133.805,320.46 136.822,317.002 139.83,315.45"
           inkscape:connector-curvature="0"
           style="fill:#8c8c8c" />
        <path
           id="path96-1"
           d="M 145.23,315.45 C 143.573,318.657 140.976,322.335 137.28,323.082 139.198,319.726 142.657,316.36 145.23,315.45"
           inkscape:connector-curvature="0"
           style="fill:#8c8c8c" />
        <path
           id="path98-3"
           d="M 150,315.45 C 148.612,318.457 146.047,320.796 143.64,323.082 145.397,320.375 148.763,317.687 150,315.45"
           inkscape:connector-curvature="0"
           style="fill:#8c8c8c" />
        <path
           id="path100-8"
           d="M 154.77,324.35 161.763,315.764 C 159.629,318.789 157.56,322.081 154.77,324.35"
           inkscape:connector-curvature="0"
           style="fill:#8c8c8c" />
        <path
           id="path102-7"
           d="M 160.81,324.35 166.534,315.764 C 164.895,318.859 163.423,322.154 160.81,324.35"
           inkscape:connector-curvature="0"
           style="fill:#8c8c8c" />
        <path
           id="path104-9"
           d="M 168.45,324.35 C 167.247,324.575 165.863,324.35 164.634,324.35 L 172.267,315.764 C 174.049,318.533 170.213,321.705 168.45,324.35"
           inkscape:connector-curvature="0"
           style="fill:#8c8c8c" />
        <path
           id="path106-3"
           d="M 179.89,316.4 C 178.599,319.55 175.707,322.141 173.214,324.35 173.62,320.537 177.065,316.743 179.89,316.4"
           inkscape:connector-curvature="0"
           style="fill:#8c8c8c" />
        <path
           id="path108-8"
           d="M 185.62,316.4 C 183.316,319.703 180.951,323.83 177.036,325.303 179.561,322.078 181.254,317.439 185.62,316.4"
           inkscape:connector-curvature="0"
           style="fill:#8c8c8c" />
        <path
           id="path110-8"
           d="M 191.02,316.4 C 189.95,320.231 186.63,324.167 182.753,325.303 185.458,322.127 187.459,317.067 191.02,316.4"
           inkscape:connector-curvature="0"
           style="fill:#8c8c8c" />
        <path
           id="path112-4"
           d="M 197.06,316.4 C 195.42,320.517 193.444,324.849 188.474,325.303 191.354,322.279 193.319,318.476 197.06,316.4"
           inkscape:connector-curvature="0"
           style="fill:#8c8c8c" />
        <path
           id="path114-0"
           d="M 204.7,316.4 C 203.443,320.239 199.905,327.307 195.16,325.303 198.087,322.123 199.601,316.303 204.7,316.4"
           inkscape:connector-curvature="0"
           style="fill:#8c8c8c" />
        <path
           id="path116-0"
           d="M 202.47,325.94 209.463,316.4 C 207.774,320.345 206.822,324.293 202.47,325.94"
           inkscape:connector-curvature="0"
           style="fill:#8c8c8c" />
        <path
           id="path118-8"
           d="M 216.14,316.4 C 214.727,320.269 212.079,325.532 207.554,325.94 210.142,322.777 212.39,318.132 216.14,316.4"
           inkscape:connector-curvature="0"
           style="fill:#8c8c8c" />
        <path
           id="path120-6"
           d="M 228.544,317.672 220.914,325.305 C 221.501,324.325 226.955,317.225 223.935,317.831 219.138,318.795 219.553,326.456 213.6,325.941 217.198,321.752 221.869,312.436 228.544,317.672"
           inkscape:connector-curvature="0"
           style="fill:#8c8c8c" />
        <path
           id="path122-8"
           d="M 228.54,322.44 C 229.143,320.838 229.813,319.258 230.449,317.669 230.224,319.607 229.3,320.83 228.54,322.44"
           inkscape:connector-curvature="0"
           style="fill:#8c8c8c" />
        <path
           id="path124-2"
           d="M 378.95,349.79 C 378.4,360.096 365.083,361.121 363.051,351.06 360.848,340.151 378.965,339.698 378.95,349.79"
           inkscape:connector-curvature="0"
           style="fill:#352020" />
        <path
           id="path126-3"
           d="M 374.185,351.06 C 375.998,358.544 367.311,357.122 365.439,351.539 362.719,343.431 373.464,345.783 374.185,351.06"
           inkscape:connector-curvature="0"
           style="fill:#d1c5be" />
      </g>
      <g
         id="g128"
         transform="matrix(0.71057,0.70362,-0.70362,0.71057,285.4987,235.59245)"
         style="stroke:#000000;stroke-width:4;stroke-linejoin:round">
        <path
           id="path130-8"
           d="M 135.66,223.37 C 138.3161,232.0641 152.426,228.0572 169.708,222.77767 186.99,217.49814 201.217,213.87657 198.274,204.24167 193.0979,187.29867 174.872,177.83267 157.59,183.11267 140.308,188.39267 130.484,206.42767 135.66,223.37067 Z"
           inkscape:connector-curvature="0"
           style="fill:#333333;stroke-linecap:round" />
        <path
           id="path132-5"
           d="M 181.57,218.52 C 176.7878,202.867 164.814,195.993 164.814,195.993 164.814,195.993 172.4728,208.135 175.549,220.36 L 181.5695,218.5207 Z"
           inkscape:connector-curvature="0"
           style="fill-opacity:0.3137;fill-rule:evenodd" />
      </g>
      <g
         id="g134"
         transform="matrix(0.98668,-0.16267,0.16267,0.98668,32.862407,348.29345)">
        <path
           id="path136-0"
           d="M 115.62,179.7 C 70.263,190.054 43.886,213.574 43.886,213.574 43.886,213.574 53.6081,210.345 59.4,209.5363 51.2077,219.7903 52.1096,234.8953 52.1096,234.8953 52.1096,234.8953 59.8785,218.9873 70.3756,210.9663 64.4064,227.4093 69.78112,249.7943 69.78112,249.7943 69.78112,249.7943 70.90532,212.0953 90.34712,198.4203 105.16912,187.9943 123.55712,185.8453 123.55712,185.8453 123.55712,185.8453 157.37012,172.9103 175.50512,189.9208 177.28872,190.18285 173.08242,176.9658 161.83012,175.2278 L 187.83812,165.7866 C 166.08612,163.5596 115.62012,179.6996 115.62012,179.6996 Z"
           inkscape:connector-curvature="0"
           style="fill:#44aa00;fill-rule:evenodd;stroke:#000000;stroke-width:4;stroke-linejoin:round" />
        <path
           id="path138-5"
           d="M 68.937,42.084 C 40.301,51.4709 23.632,68.11 16.488,88.169 -7.282,92.7251 -18.749,123.637 -18.749,123.637 -18.749,123.637 2.078,127.1516 12.362,115.7336 12.61279,124.7662 14.245,134.0906 17.1084,143.4626 30.3074,186.6656 94.6974,205.3366 119.2984,197.8226 144.8494,190.0167 186.8574,138.8406 173.6584,95.6326 170.795,86.2599 166.9372,77.6156 162.0974,69.9846 177.0064,73.706 192.2834,59.1616 192.2834,59.1616 192.2834,59.1616 165.5274,39.9356 143.2704,49.4322 125.6374,36.4212 101.6774,32.0772 71.4814,41.3023 70.62646,41.56349 69.7756,41.80481 68.9411,42.07839 Z"
           inkscape:connector-curvature="0"
           style="fill:#333333;stroke:#000000;stroke-width:4;stroke-linecap:round;stroke-linejoin:round" />
        <path
           id="path140-9"
           d="M 88.412,109.15 C 92.0735,121.122 85.3342,133.794 73.362,137.452 61.3898,141.11 48.719,134.3669 45.065,122.393 41.4035,110.421 48.1428,97.749 60.115,94.091 72.0872,90.433 84.758,97.1761 88.412,109.15 Z"
           inkscape:connector-curvature="0"
           style="fill:#ffffff;stroke:#000000;stroke-width:4;stroke-linecap:round;stroke-linejoin:round" />
        <path
           id="path142-2"
           d="M 138.84,93.739 C 142.5015,105.711 135.7622,118.383 123.79,122.041 111.8178,125.699 99.147,118.9559 95.493,106.982 91.8315,95.01 98.5708,82.338 110.543,78.68 122.5152,75.022 135.186,81.7651 138.84,93.739 Z"
           inkscape:connector-curvature="0"
           style="fill:#ffffff;stroke:#000000;stroke-width:4;stroke-linecap:round;stroke-linejoin:round" />
        <path
           id="path144-6"
           d="M 120.75,103.45 C 121.9702,107.4406 119.7241,111.6647 115.7332,112.8839 111.7423,114.1031 107.5188,111.8555 106.3008,107.8643 105.0828,103.8731 107.3267,99.6496 111.3176,98.4304 115.3085,97.2112 119.532,99.4588 120.75,103.45 Z"
           inkscape:connector-curvature="0" />
        <path
           id="path146-8"
           d="M 80.55,115.73 C 81.7702,119.7206 79.5241,123.9447 75.5332,125.1639 71.5423,126.3831 67.3188,124.1355 66.1008,120.1443 64.8828,116.1531 67.1267,111.9296 71.1176,110.7104 75.1085,109.4912 79.332,111.7388 80.55,115.73 Z"
           inkscape:connector-curvature="0" />
        <path
           id="path148-5"
           d="M 162.68,70.954 161.6629,74.0422 C 162.7995,76.9108 163.8039,79.8738 164.7308,82.9077 177.9298,126.1107 135.9218,177.2867 110.3708,185.0977 90.5688,191.1474 44.9988,180.2295 21.0918,153.1967 40.1338,189.4617 96.6228,204.7527 119.2918,197.8277 144.8428,190.0218 186.8508,138.8457 173.6518,95.6377 170.9078,86.6559 167.2444,78.3447 162.6798,70.9537 Z"
           inkscape:connector-curvature="0"
           style="fill-opacity:0.3137" />
        <path
           id="path150-2"
           d="M 126.64,165.05 C 125.6082,169.5196 122.1293,172.533 118.8705,171.78 115.6117,171.027 113.8077,166.7927 114.8415,162.3236 115.8753,157.8545 119.3522,154.8406 122.611,155.5936 125.8698,156.3466 127.6738,160.5809 126.64,165.0501 Z"
           inkscape:connector-curvature="0" />
        <path
           id="path152-8"
           d="M 95.33,174.61 C 98.6835,177.7398 103.2525,178.2946 105.534,175.849 107.8155,173.4034 106.9453,168.8838 103.5904,165.755 100.2355,162.6262 95.6679,162.0704 93.3864,164.516 91.1049,166.9616 91.9751,171.4812 95.33,174.61 Z"
           inkscape:connector-curvature="0" />
        <path
           id="path154-3"
           d="M 47.13519,218.7705 C 43.87855,219.40419 41.72732,222.55537 42.36102,225.81203 42.46241,226.33283 42.64772,226.81687 42.8682,227.27331 40.2877,228.34672 38.71794,231.14047 39.27243,233.99004 39.90613,237.2467 43.08202,239.36128 46.33866,238.72757 47.08143,238.58305 47.74093,238.30126 48.34694,237.92291 49.11167,241.00754 52.17417,243.0042 55.3288,242.39035 58.58547,241.75662 60.70004,238.58077 60.06633,235.32409 59.90794,234.50991 59.59494,233.76056 59.15855,233.11303 61.48588,231.92575 62.87249,229.2941 62.34874,226.60257 61.71503,223.3459 58.53917,221.23134 55.28251,221.86504 54.76288,221.96617 54.27083,222.12183 53.81524,222.34153 52.74184,219.76103 49.98474,218.21597 47.13516,218.77047 Z M 50.89452,230.07303 C 51.05157,230.45054 51.22806,230.81191 51.45278,231.14234 51.29665,231.22204 51.13899,231.29896 50.99183,231.39121 50.88926,230.97742 50.7494,230.57028 50.56905,230.20004 50.67516,230.15594 50.7919,230.12254 50.89453,230.073 Z"
           inkscape:connector-curvature="0"
           style="fill:#ffff00;stroke:#000000;stroke-width:4;stroke-linecap:round;stroke-linejoin:round" />
      </g>
    </g>
  </g>
</svg>
