<?xml version="1.0" encoding="UTF-8" standalone="no"?>
<!-- Created with Inkscape (http://www.inkscape.org/) -->

<svg
   xmlns:dc="http://purl.org/dc/elements/1.1/"
   xmlns:cc="http://creativecommons.org/ns#"
   xmlns:rdf="http://www.w3.org/1999/02/22-rdf-syntax-ns#"
   xmlns:svg="http://www.w3.org/2000/svg"
   xmlns="http://www.w3.org/2000/svg"
   xmlns:sodipodi="http://sodipodi.sourceforge.net/DTD/sodipodi-0.dtd"
   xmlns:inkscape="http://www.inkscape.org/namespaces/inkscape"
   width="34.121326mm"
   height="108.63459mm"
   viewBox="0 0 120.90234 384.92571"
   id="svg14281"
   version="1.1"
   inkscape:version="0.91 r13725"
   sodipodi:docname="characters.svg">
  <defs
     id="defs14283" />
  <sodipodi:namedview
     id="base"
     pagecolor="#ffffff"
     bordercolor="#666666"
     borderopacity="1.0"
     inkscape:pageopacity="0.0"
     inkscape:pageshadow="2"
     inkscape:zoom="3.3763976"
     inkscape:cx="-19.543751"
     inkscape:cy="260.69571"
     inkscape:document-units="px"
     inkscape:current-layer="layer1"
     showgrid="false"
     inkscape:window-width="1920"
     inkscape:window-height="1056"
     inkscape:window-x="1920"
     inkscape:window-y="24"
     inkscape:window-maximized="1"
     fit-margin-top="0"
     fit-margin-left="0"
     fit-margin-right="0"
     fit-margin-bottom="0" />
  <metadata
     id="metadata14286">
    <rdf:RDF>
      <cc:Work
         rdf:about="">
        <dc:format>image/svg+xml</dc:format>
        <dc:type
           rdf:resource="http://purl.org/dc/dcmitype/StillImage" />
        <dc:title />
      </cc:Work>
    </rdf:RDF>
  </metadata>
  <g
     inkscape:label="Layer 1"
     inkscape:groupmode="layer"
     id="layer1"
     transform="translate(-50.977433,-35.930592)">
    <path
       id="path6"
       d="M 143.43427,255.89335 135.57266,381.24429 108.9304,381.24429 112.8612,254.1466 143.43427,255.8936 Z"
       inkscape:connector-curvature="0"
       style="fill:#54b59d;fill-rule:evenodd;stroke:#000000;stroke-width:1.30077064;stroke-linecap:round;stroke-linejoin:round" />
    <path
       id="path8"
       d="M 112.85996,391.285 108.0556,401.33067 108.9291,410.50234 C 108.9291,410.50234 159.15433,417.26201 165.12921,410.08378 171.03347,402.99024 141.50721,396.6369 136.74019,391.73981 131.97318,386.84291 131.20387,384.29693 131.20387,384.29693 L 110.67647,384.73368 112.86027,391.28523 Z"
       inkscape:connector-curvature="0"
       style="fill:#a9c8e7;fill-rule:evenodd;stroke:#000000;stroke-width:1.30077064;stroke-linecap:round;stroke-linejoin:round" />
    <path
       id="path10"
       d="M 108.0595,406.13856 104.1287,411.37968 108.93306,415.74723 169.07017,415.89485 168.78102,409.20827 165.27482,408.32263 155.22916,408.32263 111.55361,407.44913 108.05956,406.13888 Z"
       inkscape:connector-curvature="0"
       style="fill:#54b59d;fill-rule:evenodd;stroke:#000000;stroke-width:1.30077064;stroke-linecap:round;stroke-linejoin:round" />
    <path
       id="path12"
       d="M 130.76724,415.74569 144.74371,396.52835 155.22607,399.58565 145.1804,416.18225 130.76724,415.74549 Z"
       inkscape:connector-curvature="0"
       style="fill:#54b59d;fill-rule:evenodd;stroke:#000000;stroke-width:1.30077064;stroke-linecap:round;stroke-linejoin:round" />
    <path
       id="path14"
       d="M 90.585814,252.83344 103.2516,293.88886 66.563675,355.035 82.723584,366.39073 126.67167,296.688 C 126.67167,296.688 126.85099,294.81675 126.90517,286.94522 126.95936,279.0737 110.67589,247.15774 110.67589,247.15774 L 90.585176,252.83561 Z"
       inkscape:connector-curvature="0"
       style="fill:#54b59d;fill-rule:evenodd;stroke:#000000;stroke-width:1.30077064;stroke-linecap:round;stroke-linejoin:round" />
    <path
       id="path16"
       d="M 167.96928,219.29833 170.00685,226.02208 171.22939,236.0058 C 171.22939,236.0058 166.06031,243.99316 163.4867,244.35985 160.9131,244.72654 159.00933,243.15001 158.39282,241.30353 157.77632,239.45706 161.04163,234.78357 161.04163,234.78357 L 163.89422,228.05983 159.20785,230.30112 159.81911,233.76495 157.78155,234.98749 155.94777,230.50491 155.54027,227.65232 158.18907,219.09448 166.33933,216.44568 167.96938,219.29827 Z"
       inkscape:connector-curvature="0"
       style="fill:#fef2ec;fill-rule:evenodd;stroke:#000000;stroke-width:1.30077064;stroke-linecap:round;stroke-linejoin:round" />
    <path
       id="path18"
       d="M 80.538908,261.1336 156.53489,258.07629 145.61585,137.9656 153.04077,221.82195 170.6371,218.48176 162.64975,132.7238 C 162.64975,132.7238 156.09758,116.09376 148.61939,112.38594 138.24605,107.2435 105.43442,108.70185 105.43442,108.70185 105.43442,108.70185 87.302916,106.91391 81.109389,111.09539 70.413957,118.31591 63.068938,148.8834 63.068938,148.8834 L 67.873242,200.85786 89.711324,199.98436 83.159775,249.33808 80.539218,261.1305 Z"
       inkscape:connector-curvature="0"
       style="fill:#54b59d;fill-rule:evenodd;stroke:#000000;stroke-width:1.30077064;stroke-linecap:round;stroke-linejoin:round" />
    <path
       id="path20"
       d="M 105.4146,209.10896 69.349802,209.51647 70.572341,220.31535 106.63714,219.50032 105.4146,209.10902 Z"
       inkscape:connector-curvature="0"
       style="fill:#ae8d64;fill-rule:evenodd;stroke:#000000;stroke-width:1.30077064;stroke-linecap:round;stroke-linejoin:round" />
    <path
       id="path22"
       d="M 89.278849,200.86455 82.290613,164.17662 94.519716,133.60356"
       inkscape:connector-curvature="0"
       style="fill:none;stroke:#000000;stroke-width:1.30077064;stroke-linecap:round;stroke-linejoin:round" />
    <path
       id="path24"
       d="M 99.759345,108.70804 118.33497,139.14484 131.64309,110.45479 99.759964,108.70779 Z"
       inkscape:connector-curvature="0"
       style="fill:#fef2ec;fill-rule:evenodd;stroke:#000000;stroke-width:1.30077064;stroke-linecap:round;stroke-linejoin:round" />
    <path
       id="path26"
       d="M 99.31956,109.14163 96.699003,121.80742 104.9973,123.11767 104.9973,137.96752 118.09978,139.27777 132.07625,131.41615 127.27188,123.11786 138.19093,118.7503 131.20269,110.452"
       inkscape:connector-curvature="0"
       style="fill:none;stroke:#000000;stroke-width:1.30077064;stroke-linecap:round;stroke-linejoin:round" />
    <path
       id="path28"
       d="M 118.54,139.27616 118.96257,258.86654"
       inkscape:connector-curvature="0"
       style="fill:none;stroke:#000000;stroke-width:1.30077064;stroke-linecap:round;stroke-linejoin:round" />
    <path
       style="fill:#fef2ec;fill-opacity:1;fill-rule:evenodd;stroke:#000000;stroke-width:1px;stroke-linecap:butt;stroke-linejoin:miter;stroke-opacity:1"
       d="M 92.737919,68.113473 C 88.064893,92.571464 88.749078,106.88412 104.58486,111.35482 117.39966,114.87858 129.46346,113.42804 133.90606,111.05865 138.34867,108.68926 143.67979,105.43135 145.16066,98.915534 146.64153,92.399714 146.9377,58.635916 146.9377,58.635916 L 106.65808,50.046881 Z"
       id="path17600"
       inkscape:connector-curvature="0"
       sodipodi:nodetypes="ccszccc" />
    <path
       id="path32"
       d="M 88.839064,75.947202 C 91.624696,73.353032 93.79562,75.207931 98.488306,75.207931 100.37647,86.21369 103.5156,80.203138 103.81069,70.200335 103.81069,66.602713 101.82447,61.119717 105.87253,59.350668 108.06551,58.392248 113.88962,58.040421 116.35489,58.040421 120.77082,58.040421 123.25826,58.434833 126.83724,60.224229 130.96706,62.289109 133.33304,63.897543 138.19297,64.591783 142.3978,65.192473 147.96919,65.436293 149.5487,66.338842 152.20617,67.857399 149.85429,60.136024 149.11194,57.16717 148.38054,54.241612 142.93427,50.147344 141.25033,49.305559 139.05618,48.208452 136.73139,44.643907 133.82541,43.190946 129.56173,41.059106 125.99353,40.133639 121.15962,40.133639 117.67857,40.133639 113.99175,39.850994 111.11395,40.570394 107.95444,41.360272 101.77132,42.508543 101.06829,39.696896 100.58902,37.779807 98.010979,34.609086 98.010979,38.386648 98.010979,42.58981 95.688236,37.810952 94.516923,36.639651 93.760122,35.88285 96.148585,42.643823 90.149368,41.443955 85.111669,40.436415 89.506601,43.908048 90.149368,47.121819 90.847572,50.61284 87.66025,53.104993 86.218563,54.546742 83.267981,57.497324 83.296784,58.311854 84.908253,61.534978 86.658843,65.03622 87.092061,65.515337 87.092061,69.833276 87.092061,72.708227 87.013216,73.209086 88.83912,75.94789 Z"
       inkscape:connector-curvature="0"
       style="fill:#4c4030;fill-rule:evenodd;stroke:#000000;stroke-width:1.30077064;stroke-linecap:round;stroke-linejoin:round" />
    <path
       id="path34"
       d="M 112.7175,102.57745 C 113.85307,99.294305 115.98764,99.196747 116.46242,99.078006 119.61127,98.290792 124.08246,98.544504 126.50808,99.514767 128.08679,100.14626 128.28549,100.97683 128.69189,103.00882"
       inkscape:connector-curvature="0"
       style="fill:none;stroke:#000000;stroke-width:1.30077064;stroke-linecap:round;stroke-linejoin:round" />
    <path
       id="path36"
       d="M 124.31294,82.265232 C 126.06427,82.96579 126.49675,86.652422 126.49675,89.253468 126.49675,90.904889 122.65235,91.437276 121.25563,91.437276"
       inkscape:connector-curvature="0"
       style="fill:none;stroke:#000000;stroke-width:1.30077064;stroke-linecap:round;stroke-linejoin:round" />
    <path
       id="path38"
       d="M 118.54,65.026922 C 118.54,66.533462 114.86817,68.82827 112.86213,69.831288 111.54848,70.488115 110.29144,71.565835 108.49458,72.015096"
       inkscape:connector-curvature="0"
       style="fill:none;stroke:#000000;stroke-width:1.30077064;stroke-linecap:round;stroke-linejoin:round" />
    <path
       id="path40"
       d="M 132.95378,66.340081 C 132.71241,66.460762 136.15293,70.778559 137.75808,71.581196 138.85729,72.13079 140.82722,71.25067 141.25213,71.144435"
       inkscape:connector-curvature="0"
       style="fill:none;stroke:#000000;stroke-width:1.30077064;stroke-linecap:round;stroke-linejoin:round" />
    <path
       id="path46"
       d="M 104.12622,376.00404 141.99165,374.98597 141.99165,388.08845 101.94216,389.54333 104.12597,376.00355 Z"
       inkscape:connector-curvature="0"
       style="fill:#54b59d;fill-rule:evenodd;stroke:#000000;stroke-width:1.30077064;stroke-linecap:round;stroke-linejoin:round" />
    <path
       id="path48"
       d="M 95.40486,296.53314 134.54072,311.42759 C 126.17304,331.95003 113.94456,350.83165 99.143027,366.84042 120.03898,370.68296 116.10322,392.29774 113.69803,396.13254 109.00157,403.69993 81.818619,403.40633 71.837371,387.7147 L 51.732411,366.89865 C 51.521401,347.66582 72.327948,322.07347 83.91224,314.12452 L 95.40486,296.53314 Z"
       inkscape:connector-curvature="0"
       style="fill:#eceff2;fill-rule:evenodd;stroke:#000000;stroke-width:1.33911252;stroke-linecap:round;stroke-linejoin:round" />
    <path
       id="path50"
       d="M 87.594041,307.76313 128.43576,323.68457"
       inkscape:connector-curvature="0"
       style="fill:none;stroke:#000000;stroke-width:1.22947609;stroke-linecap:round;stroke-linejoin:round" />
    <path
       id="path52"
       d="M 82.186551,315.33857 120.952,337.10852"
       inkscape:connector-curvature="0"
       style="fill:none;stroke:#000000;stroke-width:1.30077064;stroke-linecap:round;stroke-linejoin:round" />
    <path
       id="path54"
       d="M 73.08735,325.33592 116.40054,344.87412"
       inkscape:connector-curvature="0"
       style="fill:none;stroke:#000000;stroke-width:1.24056363;stroke-linecap:round;stroke-linejoin:round" />
    <path
       id="path56"
       d="M 67.196717,330.90446 108.254,355.15702"
       inkscape:connector-curvature="0"
       style="fill:none;stroke:#000000;stroke-width:1.30077064;stroke-linecap:round;stroke-linejoin:round" />
    <path
       id="path58"
       d="M 61.089289,339.59485 102.71953,362.6061"
       inkscape:connector-curvature="0"
       style="fill:none;stroke:#000000;stroke-width:1.30077064;stroke-linecap:round;stroke-linejoin:round" />
    <path
       id="path60"
       d="M 53.829749,355.15455 99.183289,366.80326"
       inkscape:connector-curvature="0"
       style="fill:none;stroke:#000000;stroke-width:1.30077064;stroke-linecap:round;stroke-linejoin:round" />
    <path
       id="path62"
       d="M 51.637021,366.71282 111.12189,373.58771"
       inkscape:connector-curvature="0"
       style="fill:none;stroke:#000000;stroke-width:1.30077064;stroke-linecap:round;stroke-linejoin:round" />
    <path
       id="path64"
       d="M 67.865685,383.0344 114.55592,379.59708"
       inkscape:connector-curvature="0"
       style="fill:none;stroke:#000000;stroke-width:1.30077064;stroke-linecap:round;stroke-linejoin:round" />
    <path
       id="path66"
       d="M 77.968337,393.46534 114.57822,384.83132"
       inkscape:connector-curvature="0"
       style="fill:none;stroke:#000000;stroke-width:1.45110273;stroke-linecap:round;stroke-linejoin:round" />
    <path
       id="path68"
       d="M 80.761897,249.24703 75.056779,416.12353 C 78.92812,421.8966 84.836717,421.35325 88.50489,415.71602 L 94.413796,249.24834 80.762517,249.24834 Z"
       inkscape:connector-curvature="0"
       style="fill:#ae8d64;fill-rule:evenodd;stroke:#000000;stroke-width:1.30077064;stroke-linecap:round;stroke-linejoin:round" />
    <path
       id="path70"
       d="M 58.345282,152.6679 63.642887,222.96527 78.313104,256.38083 97.058449,257.19585 110.50656,221.74242 115.19293,151.85386 104.80163,150.83511 103.37536,225.20823 96.44783,244.36115 77.498697,243.74989 74.034869,224.59697 70.367315,153.28376 58.345715,152.67249 Z"
       inkscape:connector-curvature="0"
       style="fill:#ae8d64;fill-rule:evenodd;stroke:#000000;stroke-width:1.30077064;stroke-linecap:round;stroke-linejoin:round" />
    <rect
       id="rect72"
       ry="5.8779354"
       rx="19.807642"
       height="17.916569"
       width="58.667236"
       y="142.28651"
       x="56.722412"
       style="fill:#bdcad8;fill-rule:evenodd;stroke:#000000;stroke-width:1.30077064;stroke-linecap:round;stroke-linejoin:round" />
    <path
       id="path74"
       d="M 70.163713,200.14603 69.348687,224.18923 C 69.348687,224.18923 71.698065,228.17343 73.423816,228.8756 78.252711,230.8405 85.83193,229.19884 90.743269,227.44933 91.861312,227.05104 93.421866,226.24271 94.003372,225.20804 94.54326,224.24739 94.302611,220.49015 94.302611,220.49015 L 89.928305,220.31792 88.094528,209.31526 98.186651,208.93333 95.945361,204.45075 87.482918,198.92378 70.163465,200.14632 Z"
       inkscape:connector-curvature="0"
       style="fill:#fef2ec;fill-rule:evenodd;stroke:#000000;stroke-width:1.30077064;stroke-linecap:round;stroke-linejoin:round" />
    <path
       id="path76"
       d="M 128.96984,153.03649 A 2.30655,3.824025 0 0 1 124.35674,153.03649 2.30655,3.824025 0 1 1 128.96984,153.03649 Z"
       inkscape:connector-curvature="0"
       style="fill:#fbfbf0;fill-rule:evenodd;stroke:#000000;stroke-width:1.30076647;stroke-linecap:round;stroke-linejoin:round" />
    <path
       id="path78"
       d="M 128.77782,169.91926 A 2.30655,3.824025 0 0 1 124.16472,169.91926 2.30655,3.824025 0 1 1 128.77782,169.91926 Z"
       inkscape:connector-curvature="0"
       style="fill:#fbfbf0;fill-rule:evenodd;stroke:#000000;stroke-width:1.30076647;stroke-linecap:round;stroke-linejoin:round" />
    <path
       id="path80"
       d="M 128.39998,185.09492 A 2.30655,3.824025 0 0 1 123.78688,185.09492 2.30655,3.824025 0 1 1 128.39998,185.09492 Z"
       inkscape:connector-curvature="0"
       style="fill:#fbfbf0;fill-rule:evenodd;stroke:#000000;stroke-width:1.30076647;stroke-linecap:round;stroke-linejoin:round" />
    <path
       id="path82"
       d="M 128.30087,200.17147 A 2.30655,3.824025 0 0 1 123.68777,200.17147 2.30655,3.824025 0 1 1 128.30087,200.17147 Z"
       inkscape:connector-curvature="0"
       style="fill:#fbfbf0;fill-rule:evenodd;stroke:#000000;stroke-width:1.30076647;stroke-linecap:round;stroke-linejoin:round" />
    <path
       id="path84"
       d="M 128.11505,217.05052 A 2.30655,3.824025 0 0 1 123.50195,217.05052 2.30655,3.824025 0 1 1 128.11505,217.05052 Z"
       inkscape:connector-curvature="0"
       style="fill:#fbfbf0;fill-rule:evenodd;stroke:#000000;stroke-width:1.30076647;stroke-linecap:round;stroke-linejoin:round" />
    <path
       id="path86"
       d="M 127.73101,232.22618 A 2.30655,3.824025 0 0 1 123.11791,232.22618 2.30655,3.824025 0 1 1 127.73101,232.22618 Z"
       inkscape:connector-curvature="0"
       style="fill:#fbfbf0;fill-rule:evenodd;stroke:#000000;stroke-width:1.30076647;stroke-linecap:round;stroke-linejoin:round" />
    <path
       id="path88"
       d="M 127.26026,245.79136 A 2.30655,3.824025 0 0 1 122.64716,245.79136 2.30655,3.824025 0 1 1 127.26026,245.79136 Z"
       inkscape:connector-curvature="0"
       style="fill:#fbfbf0;fill-rule:evenodd;stroke:#000000;stroke-width:1.30076647;stroke-linecap:round;stroke-linejoin:round" />
    <path
       id="path90"
       d="M 92.821901,199.44609 68.97072,202.91531 64.778708,177.90768 60.875776,152.32214 66.368745,138.58972 82.703329,137.28876 92.677143,138.44521 82.124796,164.32002 88.340621,186.00263 92.821715,199.44578 Z"
       inkscape:connector-curvature="0"
       style="fill:#54b59d;fill-rule:evenodd;stroke:#000000;stroke-width:1.30077064;stroke-linecap:round;stroke-linejoin:round" />
    <path
       id="path92"
       d="M 67.06664,137.7524 66.447275,139.94029 91.251734,140.27278 92.922853,135.67226 67.066627,137.75238 Z"
       inkscape:connector-curvature="0"
       style="fill:#54b59d;fill-rule:evenodd" />
    <path
       id="path94"
       d="M 92.196621,87.521283 A 4.8523481,5.2608827 0 1 1 93.372145,77.156364"
       inkscape:connector-curvature="0"
       style="fill:#fef2ec;fill-rule:evenodd;stroke:#000000;stroke-width:1.56799042;stroke-linecap:round;stroke-linejoin:round" />
    <path
       style="opacity:1;fill:none;fill-opacity:1;stroke:none;stroke-width:1;stroke-miterlimit:4;stroke-dasharray:none;stroke-dashoffset:0;stroke-opacity:1"
       id="path17590"
       ry="21.472589"
       rx="28.432671"
       cy="98.471275"
       cx="142.49509" />
    <circle
       style="opacity:1;fill:#302a22;fill-opacity:1;stroke:none;stroke-width:1;stroke-miterlimit:4;stroke-dasharray:none;stroke-dashoffset:0;stroke-opacity:1"
       id="path17596"
       cx="115.3952"
       cy="80.404671"
       r="5.1830382" />
    <circle
       r="5.1830382"
       cy="80.404671"
       cx="133.16562"
       id="circle17598"
       style="opacity:1;fill:#302a22;fill-opacity:1;stroke:none;stroke-width:1;stroke-miterlimit:4;stroke-dasharray:none;stroke-dashoffset:0;stroke-opacity:1" />
  </g>
</svg>
